G04 #@! TF.FileFunction,Legend,Bot*
%FSLAX46Y46*%
G04 Gerber Fmt 4.6, Leading zero omitted, Abs format (unit mm)*
G04 Created by KiCad (PCBNEW 4.1.0-alpha+201605292346+6852~44~ubuntu14.04.1-product) date Thu Jun  2 19:47:09 2016*
%MOMM*%
%LPD*%
G01*
G04 APERTURE LIST*
%ADD10C,0.150000*%
%ADD11C,0.071120*%
%ADD12C,0.127000*%
%ADD13C,0.066040*%
%ADD14C,0.203200*%
%ADD15C,0.152400*%
%ADD16C,0.088900*%
G04 APERTURE END LIST*
D10*
D11*
X161874200Y-86474300D02*
X161366200Y-86474300D01*
X161366200Y-86474300D02*
X161366200Y-85712300D01*
X161366200Y-85712300D02*
X161874200Y-85712300D01*
X162382200Y-86474300D02*
X162890200Y-86474300D01*
X162890200Y-86474300D02*
X162890200Y-85712300D01*
X162890200Y-85712300D02*
X162382200Y-85712300D01*
X175348900Y-86842600D02*
X175348900Y-87350600D01*
X175348900Y-87350600D02*
X174586900Y-87350600D01*
X174586900Y-87350600D02*
X174586900Y-86842600D01*
X175348900Y-86334600D02*
X175348900Y-85826600D01*
X175348900Y-85826600D02*
X174586900Y-85826600D01*
X174586900Y-85826600D02*
X174586900Y-86334600D01*
X169278300Y-94678500D02*
X169278300Y-94170500D01*
X169278300Y-94170500D02*
X170040300Y-94170500D01*
X170040300Y-94170500D02*
X170040300Y-94678500D01*
X169278300Y-95186500D02*
X169278300Y-95694500D01*
X169278300Y-95694500D02*
X170040300Y-95694500D01*
X170040300Y-95694500D02*
X170040300Y-95186500D01*
X169011600Y-89039700D02*
X169011600Y-89547700D01*
X169011600Y-89547700D02*
X168249600Y-89547700D01*
X168249600Y-89547700D02*
X168249600Y-89039700D01*
X169011600Y-88531700D02*
X169011600Y-88023700D01*
X169011600Y-88023700D02*
X168249600Y-88023700D01*
X168249600Y-88023700D02*
X168249600Y-88531700D01*
X171411900Y-90220800D02*
X171411900Y-89712800D01*
X171411900Y-89712800D02*
X172173900Y-89712800D01*
X172173900Y-89712800D02*
X172173900Y-90220800D01*
X171411900Y-90728800D02*
X171411900Y-91236800D01*
X171411900Y-91236800D02*
X172173900Y-91236800D01*
X172173900Y-91236800D02*
X172173900Y-90728800D01*
X173507400Y-88912700D02*
X172999400Y-88912700D01*
X172999400Y-88912700D02*
X172999400Y-88150700D01*
X172999400Y-88150700D02*
X173507400Y-88150700D01*
X174015400Y-88912700D02*
X174523400Y-88912700D01*
X174523400Y-88912700D02*
X174523400Y-88150700D01*
X174523400Y-88150700D02*
X174015400Y-88150700D01*
X173316900Y-92811600D02*
X172808900Y-92811600D01*
X172808900Y-92811600D02*
X172808900Y-92049600D01*
X172808900Y-92049600D02*
X173316900Y-92049600D01*
X173824900Y-92811600D02*
X174332900Y-92811600D01*
X174332900Y-92811600D02*
X174332900Y-92049600D01*
X174332900Y-92049600D02*
X173824900Y-92049600D01*
X171284900Y-98590100D02*
X171792900Y-98590100D01*
X171792900Y-98590100D02*
X171792900Y-99352100D01*
X171792900Y-99352100D02*
X171284900Y-99352100D01*
X170776900Y-98590100D02*
X170268900Y-98590100D01*
X170268900Y-98590100D02*
X170268900Y-99352100D01*
X170268900Y-99352100D02*
X170776900Y-99352100D01*
X175666400Y-86995000D02*
X175666400Y-86487000D01*
X175666400Y-86487000D02*
X176428400Y-86487000D01*
X176428400Y-86487000D02*
X176428400Y-86995000D01*
X175666400Y-87503000D02*
X175666400Y-88011000D01*
X175666400Y-88011000D02*
X176428400Y-88011000D01*
X176428400Y-88011000D02*
X176428400Y-87503000D01*
X153898600Y-100660200D02*
X153898600Y-101168200D01*
X153898600Y-101168200D02*
X153136600Y-101168200D01*
X153136600Y-101168200D02*
X153136600Y-100660200D01*
X153898600Y-100152200D02*
X153898600Y-99644200D01*
X153898600Y-99644200D02*
X153136600Y-99644200D01*
X153136600Y-99644200D02*
X153136600Y-100152200D01*
X158788100Y-100152200D02*
X158280100Y-100152200D01*
X158280100Y-100152200D02*
X158280100Y-99390200D01*
X158280100Y-99390200D02*
X158788100Y-99390200D01*
X159296100Y-100152200D02*
X159804100Y-100152200D01*
X159804100Y-100152200D02*
X159804100Y-99390200D01*
X159804100Y-99390200D02*
X159296100Y-99390200D01*
X160858200Y-93446600D02*
X160858200Y-93954600D01*
X160858200Y-93954600D02*
X160096200Y-93954600D01*
X160096200Y-93954600D02*
X160096200Y-93446600D01*
X160858200Y-92938600D02*
X160858200Y-92430600D01*
X160858200Y-92430600D02*
X160096200Y-92430600D01*
X160096200Y-92430600D02*
X160096200Y-92938600D01*
X153428700Y-94094300D02*
X152920700Y-94094300D01*
X152920700Y-94094300D02*
X152920700Y-93332300D01*
X152920700Y-93332300D02*
X153428700Y-93332300D01*
X153936700Y-94094300D02*
X154444700Y-94094300D01*
X154444700Y-94094300D02*
X154444700Y-93332300D01*
X154444700Y-93332300D02*
X153936700Y-93332300D01*
X153797000Y-92633800D02*
X153289000Y-92633800D01*
X153289000Y-92633800D02*
X153289000Y-91871800D01*
X153289000Y-91871800D02*
X153797000Y-91871800D01*
X154305000Y-92633800D02*
X154813000Y-92633800D01*
X154813000Y-92633800D02*
X154813000Y-91871800D01*
X154813000Y-91871800D02*
X154305000Y-91871800D01*
X154254200Y-90754200D02*
X154254200Y-90246200D01*
X154254200Y-90246200D02*
X155016200Y-90246200D01*
X155016200Y-90246200D02*
X155016200Y-90754200D01*
X154254200Y-91262200D02*
X154254200Y-91770200D01*
X154254200Y-91770200D02*
X155016200Y-91770200D01*
X155016200Y-91770200D02*
X155016200Y-91262200D01*
X160591500Y-90093800D02*
X160083500Y-90093800D01*
X160083500Y-90093800D02*
X160083500Y-89331800D01*
X160083500Y-89331800D02*
X160591500Y-89331800D01*
X161099500Y-90093800D02*
X161607500Y-90093800D01*
X161607500Y-90093800D02*
X161607500Y-89331800D01*
X161607500Y-89331800D02*
X161099500Y-89331800D01*
X158457900Y-93751400D02*
X158457900Y-94259400D01*
X158457900Y-94259400D02*
X157695900Y-94259400D01*
X157695900Y-94259400D02*
X157695900Y-93751400D01*
X158457900Y-93243400D02*
X158457900Y-92735400D01*
X158457900Y-92735400D02*
X157695900Y-92735400D01*
X157695900Y-92735400D02*
X157695900Y-93243400D01*
X157187900Y-95694500D02*
X157187900Y-95186500D01*
X157187900Y-95186500D02*
X157949900Y-95186500D01*
X157949900Y-95186500D02*
X157949900Y-95694500D01*
X157187900Y-96202500D02*
X157187900Y-96710500D01*
X157187900Y-96710500D02*
X157949900Y-96710500D01*
X157949900Y-96710500D02*
X157949900Y-96202500D01*
X156578300Y-91478100D02*
X157086300Y-91478100D01*
X157086300Y-91478100D02*
X157086300Y-92240100D01*
X157086300Y-92240100D02*
X156578300Y-92240100D01*
X156070300Y-91478100D02*
X155562300Y-91478100D01*
X155562300Y-91478100D02*
X155562300Y-92240100D01*
X155562300Y-92240100D02*
X156070300Y-92240100D01*
X156006800Y-91147900D02*
X155498800Y-91147900D01*
X155498800Y-91147900D02*
X155498800Y-90385900D01*
X155498800Y-90385900D02*
X156006800Y-90385900D01*
X156514800Y-91147900D02*
X157022800Y-91147900D01*
X157022800Y-91147900D02*
X157022800Y-90385900D01*
X157022800Y-90385900D02*
X156514800Y-90385900D01*
X153441400Y-95377000D02*
X152933400Y-95377000D01*
X152933400Y-95377000D02*
X152933400Y-94615000D01*
X152933400Y-94615000D02*
X153441400Y-94615000D01*
X153949400Y-95377000D02*
X154457400Y-95377000D01*
X154457400Y-95377000D02*
X154457400Y-94615000D01*
X154457400Y-94615000D02*
X153949400Y-94615000D01*
X153466800Y-96608900D02*
X152958800Y-96608900D01*
X152958800Y-96608900D02*
X152958800Y-95846900D01*
X152958800Y-95846900D02*
X153466800Y-95846900D01*
X153974800Y-96608900D02*
X154482800Y-96608900D01*
X154482800Y-96608900D02*
X154482800Y-95846900D01*
X154482800Y-95846900D02*
X153974800Y-95846900D01*
X155740100Y-96202500D02*
X155740100Y-96710500D01*
X155740100Y-96710500D02*
X154978100Y-96710500D01*
X154978100Y-96710500D02*
X154978100Y-96202500D01*
X155740100Y-95694500D02*
X155740100Y-95186500D01*
X155740100Y-95186500D02*
X154978100Y-95186500D01*
X154978100Y-95186500D02*
X154978100Y-95694500D01*
X153733500Y-98171000D02*
X153733500Y-97663000D01*
X153733500Y-97663000D02*
X154495500Y-97663000D01*
X154495500Y-97663000D02*
X154495500Y-98171000D01*
X153733500Y-98679000D02*
X153733500Y-99187000D01*
X153733500Y-99187000D02*
X154495500Y-99187000D01*
X154495500Y-99187000D02*
X154495500Y-98679000D01*
X160807400Y-91935300D02*
X160299400Y-91935300D01*
X160299400Y-91935300D02*
X160299400Y-91173300D01*
X160299400Y-91173300D02*
X160807400Y-91173300D01*
X161315400Y-91935300D02*
X161823400Y-91935300D01*
X161823400Y-91935300D02*
X161823400Y-91173300D01*
X161823400Y-91173300D02*
X161315400Y-91173300D01*
X167259000Y-90690700D02*
X167259000Y-91198700D01*
X167259000Y-91198700D02*
X166497000Y-91198700D01*
X166497000Y-91198700D02*
X166497000Y-90690700D01*
X167259000Y-90182700D02*
X167259000Y-89674700D01*
X167259000Y-89674700D02*
X166497000Y-89674700D01*
X166497000Y-89674700D02*
X166497000Y-90182700D01*
X168554400Y-99314000D02*
X168046400Y-99314000D01*
X168046400Y-99314000D02*
X168046400Y-98552000D01*
X168046400Y-98552000D02*
X168554400Y-98552000D01*
X169062400Y-99314000D02*
X169570400Y-99314000D01*
X169570400Y-99314000D02*
X169570400Y-98552000D01*
X169570400Y-98552000D02*
X169062400Y-98552000D01*
X167474900Y-92202000D02*
X167474900Y-91694000D01*
X167474900Y-91694000D02*
X168236900Y-91694000D01*
X168236900Y-91694000D02*
X168236900Y-92202000D01*
X167474900Y-92710000D02*
X167474900Y-93218000D01*
X167474900Y-93218000D02*
X168236900Y-93218000D01*
X168236900Y-93218000D02*
X168236900Y-92710000D01*
X167195500Y-94195900D02*
X167195500Y-94703900D01*
X167195500Y-94703900D02*
X166433500Y-94703900D01*
X166433500Y-94703900D02*
X166433500Y-94195900D01*
X167195500Y-93687900D02*
X167195500Y-93179900D01*
X167195500Y-93179900D02*
X166433500Y-93179900D01*
X166433500Y-93179900D02*
X166433500Y-93687900D01*
D12*
X154952700Y-89357200D02*
X154825700Y-89357200D01*
X154825700Y-89357200D02*
X154825700Y-84023200D01*
X158635700Y-84023200D02*
X158635700Y-89357200D01*
X158635700Y-89357200D02*
X154952700Y-89357200D01*
X157238700Y-89357200D02*
X157238700Y-88849200D01*
X157238700Y-88849200D02*
X156222700Y-88849200D01*
X156222700Y-88849200D02*
X156222700Y-89357200D01*
X158635700Y-84023200D02*
X154825700Y-84023200D01*
D10*
X151169255Y-101764100D02*
G75*
G03X151169255Y-101764100I-360555J0D01*
G01*
D13*
X151432260Y-102986840D02*
X151681180Y-102986840D01*
X150931880Y-102986840D02*
X151183340Y-102986840D01*
X150431500Y-102986840D02*
X150682960Y-102986840D01*
X149933660Y-102986840D02*
X150182580Y-102986840D01*
X149433280Y-102986840D02*
X149682200Y-102986840D01*
X148932900Y-102986840D02*
X149181820Y-102986840D01*
X148432520Y-102986840D02*
X148681440Y-102986840D01*
X147932140Y-102986840D02*
X148183600Y-102986840D01*
X147431760Y-102986840D02*
X147683220Y-102986840D01*
X146931380Y-102986840D02*
X147182840Y-102986840D01*
X146433540Y-102986840D02*
X146682460Y-102986840D01*
X145933160Y-102986840D02*
X146182080Y-102986840D01*
X145435320Y-102986840D02*
X145684240Y-102986840D01*
X144934940Y-102986840D02*
X145183860Y-102986840D01*
X144434560Y-102986840D02*
X144686020Y-102986840D01*
X143934180Y-102986840D02*
X144185640Y-102986840D01*
X143433800Y-102986840D02*
X143685260Y-102986840D01*
X142935960Y-102986840D02*
X143184880Y-102986840D01*
X142435580Y-102986840D02*
X142684500Y-102986840D01*
X141935200Y-102986840D02*
X142184120Y-102986840D01*
X141434820Y-102986840D02*
X141683740Y-102986840D01*
X140934440Y-102986840D02*
X141185900Y-102986840D01*
X140434060Y-102986840D02*
X140685520Y-102986840D01*
X139936220Y-102986840D02*
X140185140Y-102986840D01*
X139936220Y-84541360D02*
X140185140Y-84541360D01*
X140434060Y-84541360D02*
X140685520Y-84541360D01*
X140934440Y-84541360D02*
X141185900Y-84541360D01*
X141434820Y-84541360D02*
X141683740Y-84541360D01*
X141935200Y-84541360D02*
X142184120Y-84541360D01*
X142435580Y-84541360D02*
X142684500Y-84541360D01*
X142935960Y-84541360D02*
X143184880Y-84541360D01*
X143433800Y-84541360D02*
X143685260Y-84541360D01*
X143934180Y-84541360D02*
X144185640Y-84541360D01*
X144434560Y-84541360D02*
X144686020Y-84541360D01*
X144934940Y-84541360D02*
X145183860Y-84541360D01*
X145435320Y-84541360D02*
X145684240Y-84541360D01*
X145933160Y-84541360D02*
X146182080Y-84541360D01*
X146433540Y-84541360D02*
X146682460Y-84541360D01*
X146931380Y-84541360D02*
X147182840Y-84541360D01*
X147431760Y-84541360D02*
X147683220Y-84541360D01*
X147932140Y-84541360D02*
X148183600Y-84541360D01*
X148432520Y-84541360D02*
X148681440Y-84541360D01*
X148932900Y-84541360D02*
X149181820Y-84541360D01*
X149433280Y-84541360D02*
X149682200Y-84541360D01*
X149933660Y-84541360D02*
X150182580Y-84541360D01*
X150431500Y-84541360D02*
X150682960Y-84541360D01*
X150931880Y-84541360D02*
X151183340Y-84541360D01*
X151432260Y-84541360D02*
X151681180Y-84541360D01*
D14*
X151808180Y-102913180D02*
X151808180Y-84615020D01*
X151808180Y-84615020D02*
X139809220Y-84615020D01*
X139809220Y-84615020D02*
X139809220Y-102913180D01*
X139809220Y-102913180D02*
X151808180Y-102913180D01*
D11*
X162179000Y-86218485D02*
X162193514Y-86235177D01*
X162237057Y-86251868D01*
X162266085Y-86251868D01*
X162309628Y-86235177D01*
X162338657Y-86201794D01*
X162353171Y-86168411D01*
X162367685Y-86101645D01*
X162367685Y-86051571D01*
X162353171Y-85984805D01*
X162338657Y-85951422D01*
X162309628Y-85918040D01*
X162266085Y-85901348D01*
X162237057Y-85901348D01*
X162193514Y-85918040D01*
X162179000Y-85934731D01*
X162062885Y-85934731D02*
X162048371Y-85918040D01*
X162019342Y-85901348D01*
X161946771Y-85901348D01*
X161917742Y-85918040D01*
X161903228Y-85934731D01*
X161888714Y-85968114D01*
X161888714Y-86001497D01*
X161903228Y-86051571D01*
X162077400Y-86251868D01*
X161888714Y-86251868D01*
X175093085Y-86537800D02*
X175109777Y-86523285D01*
X175126468Y-86479742D01*
X175126468Y-86450714D01*
X175109777Y-86407171D01*
X175076394Y-86378142D01*
X175043011Y-86363628D01*
X174976245Y-86349114D01*
X174926171Y-86349114D01*
X174859405Y-86363628D01*
X174826022Y-86378142D01*
X174792640Y-86407171D01*
X174775948Y-86450714D01*
X174775948Y-86479742D01*
X174792640Y-86523285D01*
X174809331Y-86537800D01*
X174892788Y-86799057D02*
X175126468Y-86799057D01*
X174759257Y-86726485D02*
X175009628Y-86653914D01*
X175009628Y-86842600D01*
X169784485Y-94736557D02*
X169801177Y-94722042D01*
X169817868Y-94678500D01*
X169817868Y-94649471D01*
X169801177Y-94605928D01*
X169767794Y-94576900D01*
X169734411Y-94562385D01*
X169667645Y-94547871D01*
X169617571Y-94547871D01*
X169550805Y-94562385D01*
X169517422Y-94576900D01*
X169484040Y-94605928D01*
X169467348Y-94649471D01*
X169467348Y-94678500D01*
X169484040Y-94722042D01*
X169500731Y-94736557D01*
X169817868Y-95026842D02*
X169817868Y-94852671D01*
X169817868Y-94939757D02*
X169467348Y-94939757D01*
X169517422Y-94910728D01*
X169550805Y-94881700D01*
X169567497Y-94852671D01*
X169467348Y-95215528D02*
X169467348Y-95244557D01*
X169484040Y-95273585D01*
X169500731Y-95288100D01*
X169534114Y-95302614D01*
X169600880Y-95317128D01*
X169684337Y-95317128D01*
X169751102Y-95302614D01*
X169784485Y-95288100D01*
X169801177Y-95273585D01*
X169817868Y-95244557D01*
X169817868Y-95215528D01*
X169801177Y-95186500D01*
X169784485Y-95171985D01*
X169751102Y-95157471D01*
X169684337Y-95142957D01*
X169600880Y-95142957D01*
X169534114Y-95157471D01*
X169500731Y-95171985D01*
X169484040Y-95186500D01*
X169467348Y-95215528D01*
X168755785Y-88589757D02*
X168772477Y-88575242D01*
X168789168Y-88531700D01*
X168789168Y-88502671D01*
X168772477Y-88459128D01*
X168739094Y-88430100D01*
X168705711Y-88415585D01*
X168638945Y-88401071D01*
X168588871Y-88401071D01*
X168522105Y-88415585D01*
X168488722Y-88430100D01*
X168455340Y-88459128D01*
X168438648Y-88502671D01*
X168438648Y-88531700D01*
X168455340Y-88575242D01*
X168472031Y-88589757D01*
X168789168Y-88880042D02*
X168789168Y-88705871D01*
X168789168Y-88792957D02*
X168438648Y-88792957D01*
X168488722Y-88763928D01*
X168522105Y-88734900D01*
X168538797Y-88705871D01*
X168438648Y-88981642D02*
X168438648Y-89170328D01*
X168572180Y-89068728D01*
X168572180Y-89112271D01*
X168588871Y-89141300D01*
X168605562Y-89155814D01*
X168638945Y-89170328D01*
X168722402Y-89170328D01*
X168755785Y-89155814D01*
X168772477Y-89141300D01*
X168789168Y-89112271D01*
X168789168Y-89025185D01*
X168772477Y-88996157D01*
X168755785Y-88981642D01*
X171918085Y-90278857D02*
X171934777Y-90264342D01*
X171951468Y-90220800D01*
X171951468Y-90191771D01*
X171934777Y-90148228D01*
X171901394Y-90119200D01*
X171868011Y-90104685D01*
X171801245Y-90090171D01*
X171751171Y-90090171D01*
X171684405Y-90104685D01*
X171651022Y-90119200D01*
X171617640Y-90148228D01*
X171600948Y-90191771D01*
X171600948Y-90220800D01*
X171617640Y-90264342D01*
X171634331Y-90278857D01*
X171951468Y-90569142D02*
X171951468Y-90394971D01*
X171951468Y-90482057D02*
X171600948Y-90482057D01*
X171651022Y-90453028D01*
X171684405Y-90424000D01*
X171701097Y-90394971D01*
X171717788Y-90830400D02*
X171951468Y-90830400D01*
X171584257Y-90757828D02*
X171834628Y-90685257D01*
X171834628Y-90873942D01*
X173957342Y-88656885D02*
X173971857Y-88673577D01*
X174015400Y-88690268D01*
X174044428Y-88690268D01*
X174087971Y-88673577D01*
X174117000Y-88640194D01*
X174131514Y-88606811D01*
X174146028Y-88540045D01*
X174146028Y-88489971D01*
X174131514Y-88423205D01*
X174117000Y-88389822D01*
X174087971Y-88356440D01*
X174044428Y-88339748D01*
X174015400Y-88339748D01*
X173971857Y-88356440D01*
X173957342Y-88373131D01*
X173667057Y-88690268D02*
X173841228Y-88690268D01*
X173754142Y-88690268D02*
X173754142Y-88339748D01*
X173783171Y-88389822D01*
X173812200Y-88423205D01*
X173841228Y-88439897D01*
X173391285Y-88339748D02*
X173536428Y-88339748D01*
X173550942Y-88506662D01*
X173536428Y-88489971D01*
X173507400Y-88473280D01*
X173434828Y-88473280D01*
X173405800Y-88489971D01*
X173391285Y-88506662D01*
X173376771Y-88540045D01*
X173376771Y-88623502D01*
X173391285Y-88656885D01*
X173405800Y-88673577D01*
X173434828Y-88690268D01*
X173507400Y-88690268D01*
X173536428Y-88673577D01*
X173550942Y-88656885D01*
X173766842Y-92555785D02*
X173781357Y-92572477D01*
X173824900Y-92589168D01*
X173853928Y-92589168D01*
X173897471Y-92572477D01*
X173926500Y-92539094D01*
X173941014Y-92505711D01*
X173955528Y-92438945D01*
X173955528Y-92388871D01*
X173941014Y-92322105D01*
X173926500Y-92288722D01*
X173897471Y-92255340D01*
X173853928Y-92238648D01*
X173824900Y-92238648D01*
X173781357Y-92255340D01*
X173766842Y-92272031D01*
X173476557Y-92589168D02*
X173650728Y-92589168D01*
X173563642Y-92589168D02*
X173563642Y-92238648D01*
X173592671Y-92288722D01*
X173621700Y-92322105D01*
X173650728Y-92338797D01*
X173215300Y-92238648D02*
X173273357Y-92238648D01*
X173302385Y-92255340D01*
X173316900Y-92272031D01*
X173345928Y-92322105D01*
X173360442Y-92388871D01*
X173360442Y-92522402D01*
X173345928Y-92555785D01*
X173331414Y-92572477D01*
X173302385Y-92589168D01*
X173244328Y-92589168D01*
X173215300Y-92572477D01*
X173200785Y-92555785D01*
X173186271Y-92522402D01*
X173186271Y-92438945D01*
X173200785Y-92405562D01*
X173215300Y-92388871D01*
X173244328Y-92372180D01*
X173302385Y-92372180D01*
X173331414Y-92388871D01*
X173345928Y-92405562D01*
X173360442Y-92438945D01*
X171226842Y-99096285D02*
X171241357Y-99112977D01*
X171284900Y-99129668D01*
X171313928Y-99129668D01*
X171357471Y-99112977D01*
X171386500Y-99079594D01*
X171401014Y-99046211D01*
X171415528Y-98979445D01*
X171415528Y-98929371D01*
X171401014Y-98862605D01*
X171386500Y-98829222D01*
X171357471Y-98795840D01*
X171313928Y-98779148D01*
X171284900Y-98779148D01*
X171241357Y-98795840D01*
X171226842Y-98812531D01*
X170936557Y-99129668D02*
X171110728Y-99129668D01*
X171023642Y-99129668D02*
X171023642Y-98779148D01*
X171052671Y-98829222D01*
X171081700Y-98862605D01*
X171110728Y-98879297D01*
X170834957Y-98779148D02*
X170631757Y-98779148D01*
X170762385Y-99129668D01*
X176205968Y-87198200D02*
X176039054Y-87096600D01*
X176205968Y-87024028D02*
X175855448Y-87024028D01*
X175855448Y-87140142D01*
X175872140Y-87169171D01*
X175888831Y-87183685D01*
X175922214Y-87198200D01*
X175972288Y-87198200D01*
X176005671Y-87183685D01*
X176022362Y-87169171D01*
X176039054Y-87140142D01*
X176039054Y-87024028D01*
X175855448Y-87299800D02*
X175855448Y-87503000D01*
X176205968Y-87372371D01*
X153676168Y-100210257D02*
X153509254Y-100108657D01*
X153676168Y-100036085D02*
X153325648Y-100036085D01*
X153325648Y-100152200D01*
X153342340Y-100181228D01*
X153359031Y-100195742D01*
X153392414Y-100210257D01*
X153442488Y-100210257D01*
X153475871Y-100195742D01*
X153492562Y-100181228D01*
X153509254Y-100152200D01*
X153509254Y-100036085D01*
X153676168Y-100500542D02*
X153676168Y-100326371D01*
X153676168Y-100413457D02*
X153325648Y-100413457D01*
X153375722Y-100384428D01*
X153409105Y-100355400D01*
X153425797Y-100326371D01*
X153442488Y-100761800D02*
X153676168Y-100761800D01*
X153308957Y-100689228D02*
X153559328Y-100616657D01*
X153559328Y-100805342D01*
X159238042Y-99896385D02*
X159252557Y-99913077D01*
X159296100Y-99929768D01*
X159325128Y-99929768D01*
X159368671Y-99913077D01*
X159397700Y-99879694D01*
X159412214Y-99846311D01*
X159426728Y-99779545D01*
X159426728Y-99729471D01*
X159412214Y-99662705D01*
X159397700Y-99629322D01*
X159368671Y-99595940D01*
X159325128Y-99579248D01*
X159296100Y-99579248D01*
X159252557Y-99595940D01*
X159238042Y-99612631D01*
X158976785Y-99696088D02*
X158976785Y-99929768D01*
X159049357Y-99562557D02*
X159121928Y-99812928D01*
X158933242Y-99812928D01*
X158657471Y-99929768D02*
X158831642Y-99929768D01*
X158744557Y-99929768D02*
X158744557Y-99579248D01*
X158773585Y-99629322D01*
X158802614Y-99662705D01*
X158831642Y-99679397D01*
X160602385Y-92996657D02*
X160619077Y-92982142D01*
X160635768Y-92938600D01*
X160635768Y-92909571D01*
X160619077Y-92866028D01*
X160585694Y-92837000D01*
X160552311Y-92822485D01*
X160485545Y-92807971D01*
X160435471Y-92807971D01*
X160368705Y-92822485D01*
X160335322Y-92837000D01*
X160301940Y-92866028D01*
X160285248Y-92909571D01*
X160285248Y-92938600D01*
X160301940Y-92982142D01*
X160318631Y-92996657D01*
X160402088Y-93257914D02*
X160635768Y-93257914D01*
X160268557Y-93185342D02*
X160518928Y-93112771D01*
X160518928Y-93301457D01*
X160318631Y-93403057D02*
X160301940Y-93417571D01*
X160285248Y-93446600D01*
X160285248Y-93519171D01*
X160301940Y-93548200D01*
X160318631Y-93562714D01*
X160352014Y-93577228D01*
X160385397Y-93577228D01*
X160435471Y-93562714D01*
X160635768Y-93388542D01*
X160635768Y-93577228D01*
X153878642Y-93838485D02*
X153893157Y-93855177D01*
X153936700Y-93871868D01*
X153965728Y-93871868D01*
X154009271Y-93855177D01*
X154038300Y-93821794D01*
X154052814Y-93788411D01*
X154067328Y-93721645D01*
X154067328Y-93671571D01*
X154052814Y-93604805D01*
X154038300Y-93571422D01*
X154009271Y-93538040D01*
X153965728Y-93521348D01*
X153936700Y-93521348D01*
X153893157Y-93538040D01*
X153878642Y-93554731D01*
X153617385Y-93638188D02*
X153617385Y-93871868D01*
X153689957Y-93504657D02*
X153762528Y-93755028D01*
X153573842Y-93755028D01*
X153327100Y-93638188D02*
X153327100Y-93871868D01*
X153399671Y-93504657D02*
X153472242Y-93755028D01*
X153283557Y-93755028D01*
X154246942Y-92377985D02*
X154261457Y-92394677D01*
X154305000Y-92411368D01*
X154334028Y-92411368D01*
X154377571Y-92394677D01*
X154406600Y-92361294D01*
X154421114Y-92327911D01*
X154435628Y-92261145D01*
X154435628Y-92211071D01*
X154421114Y-92144305D01*
X154406600Y-92110922D01*
X154377571Y-92077540D01*
X154334028Y-92060848D01*
X154305000Y-92060848D01*
X154261457Y-92077540D01*
X154246942Y-92094231D01*
X153971171Y-92060848D02*
X154116314Y-92060848D01*
X154130828Y-92227762D01*
X154116314Y-92211071D01*
X154087285Y-92194380D01*
X154014714Y-92194380D01*
X153985685Y-92211071D01*
X153971171Y-92227762D01*
X153956657Y-92261145D01*
X153956657Y-92344602D01*
X153971171Y-92377985D01*
X153985685Y-92394677D01*
X154014714Y-92411368D01*
X154087285Y-92411368D01*
X154116314Y-92394677D01*
X154130828Y-92377985D01*
X153767971Y-92060848D02*
X153738942Y-92060848D01*
X153709914Y-92077540D01*
X153695400Y-92094231D01*
X153680885Y-92127614D01*
X153666371Y-92194380D01*
X153666371Y-92277837D01*
X153680885Y-92344602D01*
X153695400Y-92377985D01*
X153709914Y-92394677D01*
X153738942Y-92411368D01*
X153767971Y-92411368D01*
X153797000Y-92394677D01*
X153811514Y-92377985D01*
X153826028Y-92344602D01*
X153840542Y-92277837D01*
X153840542Y-92194380D01*
X153826028Y-92127614D01*
X153811514Y-92094231D01*
X153797000Y-92077540D01*
X153767971Y-92060848D01*
X154760385Y-90812257D02*
X154777077Y-90797742D01*
X154793768Y-90754200D01*
X154793768Y-90725171D01*
X154777077Y-90681628D01*
X154743694Y-90652600D01*
X154710311Y-90638085D01*
X154643545Y-90623571D01*
X154593471Y-90623571D01*
X154526705Y-90638085D01*
X154493322Y-90652600D01*
X154459940Y-90681628D01*
X154443248Y-90725171D01*
X154443248Y-90754200D01*
X154459940Y-90797742D01*
X154476631Y-90812257D01*
X154443248Y-91088028D02*
X154443248Y-90942885D01*
X154610162Y-90928371D01*
X154593471Y-90942885D01*
X154576780Y-90971914D01*
X154576780Y-91044485D01*
X154593471Y-91073514D01*
X154610162Y-91088028D01*
X154643545Y-91102542D01*
X154727002Y-91102542D01*
X154760385Y-91088028D01*
X154777077Y-91073514D01*
X154793768Y-91044485D01*
X154793768Y-90971914D01*
X154777077Y-90942885D01*
X154760385Y-90928371D01*
X154793768Y-91392828D02*
X154793768Y-91218657D01*
X154793768Y-91305742D02*
X154443248Y-91305742D01*
X154493322Y-91276714D01*
X154526705Y-91247685D01*
X154543397Y-91218657D01*
X161041442Y-89837985D02*
X161055957Y-89854677D01*
X161099500Y-89871368D01*
X161128528Y-89871368D01*
X161172071Y-89854677D01*
X161201100Y-89821294D01*
X161215614Y-89787911D01*
X161230128Y-89721145D01*
X161230128Y-89671071D01*
X161215614Y-89604305D01*
X161201100Y-89570922D01*
X161172071Y-89537540D01*
X161128528Y-89520848D01*
X161099500Y-89520848D01*
X161055957Y-89537540D01*
X161041442Y-89554231D01*
X160765671Y-89520848D02*
X160910814Y-89520848D01*
X160925328Y-89687762D01*
X160910814Y-89671071D01*
X160881785Y-89654380D01*
X160809214Y-89654380D01*
X160780185Y-89671071D01*
X160765671Y-89687762D01*
X160751157Y-89721145D01*
X160751157Y-89804602D01*
X160765671Y-89837985D01*
X160780185Y-89854677D01*
X160809214Y-89871368D01*
X160881785Y-89871368D01*
X160910814Y-89854677D01*
X160925328Y-89837985D01*
X160649557Y-89520848D02*
X160460871Y-89520848D01*
X160562471Y-89654380D01*
X160518928Y-89654380D01*
X160489900Y-89671071D01*
X160475385Y-89687762D01*
X160460871Y-89721145D01*
X160460871Y-89804602D01*
X160475385Y-89837985D01*
X160489900Y-89854677D01*
X160518928Y-89871368D01*
X160606014Y-89871368D01*
X160635042Y-89854677D01*
X160649557Y-89837985D01*
X158202085Y-93301457D02*
X158218777Y-93286942D01*
X158235468Y-93243400D01*
X158235468Y-93214371D01*
X158218777Y-93170828D01*
X158185394Y-93141800D01*
X158152011Y-93127285D01*
X158085245Y-93112771D01*
X158035171Y-93112771D01*
X157968405Y-93127285D01*
X157935022Y-93141800D01*
X157901640Y-93170828D01*
X157884948Y-93214371D01*
X157884948Y-93243400D01*
X157901640Y-93286942D01*
X157918331Y-93301457D01*
X157884948Y-93577228D02*
X157884948Y-93432085D01*
X158051862Y-93417571D01*
X158035171Y-93432085D01*
X158018480Y-93461114D01*
X158018480Y-93533685D01*
X158035171Y-93562714D01*
X158051862Y-93577228D01*
X158085245Y-93591742D01*
X158168702Y-93591742D01*
X158202085Y-93577228D01*
X158218777Y-93562714D01*
X158235468Y-93533685D01*
X158235468Y-93461114D01*
X158218777Y-93432085D01*
X158202085Y-93417571D01*
X158001788Y-93853000D02*
X158235468Y-93853000D01*
X157868257Y-93780428D02*
X158118628Y-93707857D01*
X158118628Y-93896542D01*
X157694085Y-95752557D02*
X157710777Y-95738042D01*
X157727468Y-95694500D01*
X157727468Y-95665471D01*
X157710777Y-95621928D01*
X157677394Y-95592900D01*
X157644011Y-95578385D01*
X157577245Y-95563871D01*
X157527171Y-95563871D01*
X157460405Y-95578385D01*
X157427022Y-95592900D01*
X157393640Y-95621928D01*
X157376948Y-95665471D01*
X157376948Y-95694500D01*
X157393640Y-95738042D01*
X157410331Y-95752557D01*
X157376948Y-96028328D02*
X157376948Y-95883185D01*
X157543862Y-95868671D01*
X157527171Y-95883185D01*
X157510480Y-95912214D01*
X157510480Y-95984785D01*
X157527171Y-96013814D01*
X157543862Y-96028328D01*
X157577245Y-96042842D01*
X157660702Y-96042842D01*
X157694085Y-96028328D01*
X157710777Y-96013814D01*
X157727468Y-95984785D01*
X157727468Y-95912214D01*
X157710777Y-95883185D01*
X157694085Y-95868671D01*
X157376948Y-96318614D02*
X157376948Y-96173471D01*
X157543862Y-96158957D01*
X157527171Y-96173471D01*
X157510480Y-96202500D01*
X157510480Y-96275071D01*
X157527171Y-96304100D01*
X157543862Y-96318614D01*
X157577245Y-96333128D01*
X157660702Y-96333128D01*
X157694085Y-96318614D01*
X157710777Y-96304100D01*
X157727468Y-96275071D01*
X157727468Y-96202500D01*
X157710777Y-96173471D01*
X157694085Y-96158957D01*
X156520242Y-91984285D02*
X156534757Y-92000977D01*
X156578300Y-92017668D01*
X156607328Y-92017668D01*
X156650871Y-92000977D01*
X156679900Y-91967594D01*
X156694414Y-91934211D01*
X156708928Y-91867445D01*
X156708928Y-91817371D01*
X156694414Y-91750605D01*
X156679900Y-91717222D01*
X156650871Y-91683840D01*
X156607328Y-91667148D01*
X156578300Y-91667148D01*
X156534757Y-91683840D01*
X156520242Y-91700531D01*
X156244471Y-91667148D02*
X156389614Y-91667148D01*
X156404128Y-91834062D01*
X156389614Y-91817371D01*
X156360585Y-91800680D01*
X156288014Y-91800680D01*
X156258985Y-91817371D01*
X156244471Y-91834062D01*
X156229957Y-91867445D01*
X156229957Y-91950902D01*
X156244471Y-91984285D01*
X156258985Y-92000977D01*
X156288014Y-92017668D01*
X156360585Y-92017668D01*
X156389614Y-92000977D01*
X156404128Y-91984285D01*
X155968700Y-91667148D02*
X156026757Y-91667148D01*
X156055785Y-91683840D01*
X156070300Y-91700531D01*
X156099328Y-91750605D01*
X156113842Y-91817371D01*
X156113842Y-91950902D01*
X156099328Y-91984285D01*
X156084814Y-92000977D01*
X156055785Y-92017668D01*
X155997728Y-92017668D01*
X155968700Y-92000977D01*
X155954185Y-91984285D01*
X155939671Y-91950902D01*
X155939671Y-91867445D01*
X155954185Y-91834062D01*
X155968700Y-91817371D01*
X155997728Y-91800680D01*
X156055785Y-91800680D01*
X156084814Y-91817371D01*
X156099328Y-91834062D01*
X156113842Y-91867445D01*
X156456742Y-90892085D02*
X156471257Y-90908777D01*
X156514800Y-90925468D01*
X156543828Y-90925468D01*
X156587371Y-90908777D01*
X156616400Y-90875394D01*
X156630914Y-90842011D01*
X156645428Y-90775245D01*
X156645428Y-90725171D01*
X156630914Y-90658405D01*
X156616400Y-90625022D01*
X156587371Y-90591640D01*
X156543828Y-90574948D01*
X156514800Y-90574948D01*
X156471257Y-90591640D01*
X156456742Y-90608331D01*
X156195485Y-90691788D02*
X156195485Y-90925468D01*
X156268057Y-90558257D02*
X156340628Y-90808628D01*
X156151942Y-90808628D01*
X155977771Y-90574948D02*
X155948742Y-90574948D01*
X155919714Y-90591640D01*
X155905200Y-90608331D01*
X155890685Y-90641714D01*
X155876171Y-90708480D01*
X155876171Y-90791937D01*
X155890685Y-90858702D01*
X155905200Y-90892085D01*
X155919714Y-90908777D01*
X155948742Y-90925468D01*
X155977771Y-90925468D01*
X156006800Y-90908777D01*
X156021314Y-90892085D01*
X156035828Y-90858702D01*
X156050342Y-90791937D01*
X156050342Y-90708480D01*
X156035828Y-90641714D01*
X156021314Y-90608331D01*
X156006800Y-90591640D01*
X155977771Y-90574948D01*
X153891342Y-95121185D02*
X153905857Y-95137877D01*
X153949400Y-95154568D01*
X153978428Y-95154568D01*
X154021971Y-95137877D01*
X154051000Y-95104494D01*
X154065514Y-95071111D01*
X154080028Y-95004345D01*
X154080028Y-94954271D01*
X154065514Y-94887505D01*
X154051000Y-94854122D01*
X154021971Y-94820740D01*
X153978428Y-94804048D01*
X153949400Y-94804048D01*
X153905857Y-94820740D01*
X153891342Y-94837431D01*
X153630085Y-94920888D02*
X153630085Y-95154568D01*
X153702657Y-94787357D02*
X153775228Y-95037728D01*
X153586542Y-95037728D01*
X153499457Y-94804048D02*
X153310771Y-94804048D01*
X153412371Y-94937580D01*
X153368828Y-94937580D01*
X153339800Y-94954271D01*
X153325285Y-94970962D01*
X153310771Y-95004345D01*
X153310771Y-95087802D01*
X153325285Y-95121185D01*
X153339800Y-95137877D01*
X153368828Y-95154568D01*
X153455914Y-95154568D01*
X153484942Y-95137877D01*
X153499457Y-95121185D01*
X153916742Y-96353085D02*
X153931257Y-96369777D01*
X153974800Y-96386468D01*
X154003828Y-96386468D01*
X154047371Y-96369777D01*
X154076400Y-96336394D01*
X154090914Y-96303011D01*
X154105428Y-96236245D01*
X154105428Y-96186171D01*
X154090914Y-96119405D01*
X154076400Y-96086022D01*
X154047371Y-96052640D01*
X154003828Y-96035948D01*
X153974800Y-96035948D01*
X153931257Y-96052640D01*
X153916742Y-96069331D01*
X153655485Y-96152788D02*
X153655485Y-96386468D01*
X153728057Y-96019257D02*
X153800628Y-96269628D01*
X153611942Y-96269628D01*
X153365200Y-96035948D02*
X153423257Y-96035948D01*
X153452285Y-96052640D01*
X153466800Y-96069331D01*
X153495828Y-96119405D01*
X153510342Y-96186171D01*
X153510342Y-96319702D01*
X153495828Y-96353085D01*
X153481314Y-96369777D01*
X153452285Y-96386468D01*
X153394228Y-96386468D01*
X153365200Y-96369777D01*
X153350685Y-96353085D01*
X153336171Y-96319702D01*
X153336171Y-96236245D01*
X153350685Y-96202862D01*
X153365200Y-96186171D01*
X153394228Y-96169480D01*
X153452285Y-96169480D01*
X153481314Y-96186171D01*
X153495828Y-96202862D01*
X153510342Y-96236245D01*
X155484285Y-95752557D02*
X155500977Y-95738042D01*
X155517668Y-95694500D01*
X155517668Y-95665471D01*
X155500977Y-95621928D01*
X155467594Y-95592900D01*
X155434211Y-95578385D01*
X155367445Y-95563871D01*
X155317371Y-95563871D01*
X155250605Y-95578385D01*
X155217222Y-95592900D01*
X155183840Y-95621928D01*
X155167148Y-95665471D01*
X155167148Y-95694500D01*
X155183840Y-95738042D01*
X155200531Y-95752557D01*
X155283988Y-96013814D02*
X155517668Y-96013814D01*
X155150457Y-95941242D02*
X155400828Y-95868671D01*
X155400828Y-96057357D01*
X155167148Y-96144442D02*
X155167148Y-96347642D01*
X155517668Y-96217014D01*
X154239685Y-98229057D02*
X154256377Y-98214542D01*
X154273068Y-98171000D01*
X154273068Y-98141971D01*
X154256377Y-98098428D01*
X154222994Y-98069400D01*
X154189611Y-98054885D01*
X154122845Y-98040371D01*
X154072771Y-98040371D01*
X154006005Y-98054885D01*
X153972622Y-98069400D01*
X153939240Y-98098428D01*
X153922548Y-98141971D01*
X153922548Y-98171000D01*
X153939240Y-98214542D01*
X153955931Y-98229057D01*
X154039388Y-98490314D02*
X154273068Y-98490314D01*
X153905857Y-98417742D02*
X154156228Y-98345171D01*
X154156228Y-98533857D01*
X154072771Y-98693514D02*
X154056080Y-98664485D01*
X154039388Y-98649971D01*
X154006005Y-98635457D01*
X153989314Y-98635457D01*
X153955931Y-98649971D01*
X153939240Y-98664485D01*
X153922548Y-98693514D01*
X153922548Y-98751571D01*
X153939240Y-98780600D01*
X153955931Y-98795114D01*
X153989314Y-98809628D01*
X154006005Y-98809628D01*
X154039388Y-98795114D01*
X154056080Y-98780600D01*
X154072771Y-98751571D01*
X154072771Y-98693514D01*
X154089462Y-98664485D01*
X154106154Y-98649971D01*
X154139537Y-98635457D01*
X154206302Y-98635457D01*
X154239685Y-98649971D01*
X154256377Y-98664485D01*
X154273068Y-98693514D01*
X154273068Y-98751571D01*
X154256377Y-98780600D01*
X154239685Y-98795114D01*
X154206302Y-98809628D01*
X154139537Y-98809628D01*
X154106154Y-98795114D01*
X154089462Y-98780600D01*
X154072771Y-98751571D01*
X161257342Y-91679485D02*
X161271857Y-91696177D01*
X161315400Y-91712868D01*
X161344428Y-91712868D01*
X161387971Y-91696177D01*
X161417000Y-91662794D01*
X161431514Y-91629411D01*
X161446028Y-91562645D01*
X161446028Y-91512571D01*
X161431514Y-91445805D01*
X161417000Y-91412422D01*
X161387971Y-91379040D01*
X161344428Y-91362348D01*
X161315400Y-91362348D01*
X161271857Y-91379040D01*
X161257342Y-91395731D01*
X160996085Y-91479188D02*
X160996085Y-91712868D01*
X161068657Y-91345657D02*
X161141228Y-91596028D01*
X160952542Y-91596028D01*
X160821914Y-91712868D02*
X160763857Y-91712868D01*
X160734828Y-91696177D01*
X160720314Y-91679485D01*
X160691285Y-91629411D01*
X160676771Y-91562645D01*
X160676771Y-91429114D01*
X160691285Y-91395731D01*
X160705800Y-91379040D01*
X160734828Y-91362348D01*
X160792885Y-91362348D01*
X160821914Y-91379040D01*
X160836428Y-91395731D01*
X160850942Y-91429114D01*
X160850942Y-91512571D01*
X160836428Y-91545954D01*
X160821914Y-91562645D01*
X160792885Y-91579337D01*
X160734828Y-91579337D01*
X160705800Y-91562645D01*
X160691285Y-91545954D01*
X160676771Y-91512571D01*
X167003185Y-90240757D02*
X167019877Y-90226242D01*
X167036568Y-90182700D01*
X167036568Y-90153671D01*
X167019877Y-90110128D01*
X166986494Y-90081100D01*
X166953111Y-90066585D01*
X166886345Y-90052071D01*
X166836271Y-90052071D01*
X166769505Y-90066585D01*
X166736122Y-90081100D01*
X166702740Y-90110128D01*
X166686048Y-90153671D01*
X166686048Y-90182700D01*
X166702740Y-90226242D01*
X166719431Y-90240757D01*
X166686048Y-90516528D02*
X166686048Y-90371385D01*
X166852962Y-90356871D01*
X166836271Y-90371385D01*
X166819580Y-90400414D01*
X166819580Y-90472985D01*
X166836271Y-90502014D01*
X166852962Y-90516528D01*
X166886345Y-90531042D01*
X166969802Y-90531042D01*
X167003185Y-90516528D01*
X167019877Y-90502014D01*
X167036568Y-90472985D01*
X167036568Y-90400414D01*
X167019877Y-90371385D01*
X167003185Y-90356871D01*
X167036568Y-90676185D02*
X167036568Y-90734242D01*
X167019877Y-90763271D01*
X167003185Y-90777785D01*
X166953111Y-90806814D01*
X166886345Y-90821328D01*
X166752814Y-90821328D01*
X166719431Y-90806814D01*
X166702740Y-90792300D01*
X166686048Y-90763271D01*
X166686048Y-90705214D01*
X166702740Y-90676185D01*
X166719431Y-90661671D01*
X166752814Y-90647157D01*
X166836271Y-90647157D01*
X166869654Y-90661671D01*
X166886345Y-90676185D01*
X166903037Y-90705214D01*
X166903037Y-90763271D01*
X166886345Y-90792300D01*
X166869654Y-90806814D01*
X166836271Y-90821328D01*
X169004342Y-99058185D02*
X169018857Y-99074877D01*
X169062400Y-99091568D01*
X169091428Y-99091568D01*
X169134971Y-99074877D01*
X169164000Y-99041494D01*
X169178514Y-99008111D01*
X169193028Y-98941345D01*
X169193028Y-98891271D01*
X169178514Y-98824505D01*
X169164000Y-98791122D01*
X169134971Y-98757740D01*
X169091428Y-98741048D01*
X169062400Y-98741048D01*
X169018857Y-98757740D01*
X169004342Y-98774431D01*
X168743085Y-98741048D02*
X168801142Y-98741048D01*
X168830171Y-98757740D01*
X168844685Y-98774431D01*
X168873714Y-98824505D01*
X168888228Y-98891271D01*
X168888228Y-99024802D01*
X168873714Y-99058185D01*
X168859200Y-99074877D01*
X168830171Y-99091568D01*
X168772114Y-99091568D01*
X168743085Y-99074877D01*
X168728571Y-99058185D01*
X168714057Y-99024802D01*
X168714057Y-98941345D01*
X168728571Y-98907962D01*
X168743085Y-98891271D01*
X168772114Y-98874580D01*
X168830171Y-98874580D01*
X168859200Y-98891271D01*
X168873714Y-98907962D01*
X168888228Y-98941345D01*
X168525371Y-98741048D02*
X168496342Y-98741048D01*
X168467314Y-98757740D01*
X168452800Y-98774431D01*
X168438285Y-98807814D01*
X168423771Y-98874580D01*
X168423771Y-98958037D01*
X168438285Y-99024802D01*
X168452800Y-99058185D01*
X168467314Y-99074877D01*
X168496342Y-99091568D01*
X168525371Y-99091568D01*
X168554400Y-99074877D01*
X168568914Y-99058185D01*
X168583428Y-99024802D01*
X168597942Y-98958037D01*
X168597942Y-98874580D01*
X168583428Y-98807814D01*
X168568914Y-98774431D01*
X168554400Y-98757740D01*
X168525371Y-98741048D01*
X167981085Y-92260057D02*
X167997777Y-92245542D01*
X168014468Y-92202000D01*
X168014468Y-92172971D01*
X167997777Y-92129428D01*
X167964394Y-92100400D01*
X167931011Y-92085885D01*
X167864245Y-92071371D01*
X167814171Y-92071371D01*
X167747405Y-92085885D01*
X167714022Y-92100400D01*
X167680640Y-92129428D01*
X167663948Y-92172971D01*
X167663948Y-92202000D01*
X167680640Y-92245542D01*
X167697331Y-92260057D01*
X167663948Y-92521314D02*
X167663948Y-92463257D01*
X167680640Y-92434228D01*
X167697331Y-92419714D01*
X167747405Y-92390685D01*
X167814171Y-92376171D01*
X167947702Y-92376171D01*
X167981085Y-92390685D01*
X167997777Y-92405200D01*
X168014468Y-92434228D01*
X168014468Y-92492285D01*
X167997777Y-92521314D01*
X167981085Y-92535828D01*
X167947702Y-92550342D01*
X167864245Y-92550342D01*
X167830862Y-92535828D01*
X167814171Y-92521314D01*
X167797480Y-92492285D01*
X167797480Y-92434228D01*
X167814171Y-92405200D01*
X167830862Y-92390685D01*
X167864245Y-92376171D01*
X168014468Y-92840628D02*
X168014468Y-92666457D01*
X168014468Y-92753542D02*
X167663948Y-92753542D01*
X167714022Y-92724514D01*
X167747405Y-92695485D01*
X167764097Y-92666457D01*
X166939685Y-93745957D02*
X166956377Y-93731442D01*
X166973068Y-93687900D01*
X166973068Y-93658871D01*
X166956377Y-93615328D01*
X166922994Y-93586300D01*
X166889611Y-93571785D01*
X166822845Y-93557271D01*
X166772771Y-93557271D01*
X166706005Y-93571785D01*
X166672622Y-93586300D01*
X166639240Y-93615328D01*
X166622548Y-93658871D01*
X166622548Y-93687900D01*
X166639240Y-93731442D01*
X166655931Y-93745957D01*
X166622548Y-94007214D02*
X166622548Y-93949157D01*
X166639240Y-93920128D01*
X166655931Y-93905614D01*
X166706005Y-93876585D01*
X166772771Y-93862071D01*
X166906302Y-93862071D01*
X166939685Y-93876585D01*
X166956377Y-93891100D01*
X166973068Y-93920128D01*
X166973068Y-93978185D01*
X166956377Y-94007214D01*
X166939685Y-94021728D01*
X166906302Y-94036242D01*
X166822845Y-94036242D01*
X166789462Y-94021728D01*
X166772771Y-94007214D01*
X166756080Y-93978185D01*
X166756080Y-93920128D01*
X166772771Y-93891100D01*
X166789462Y-93876585D01*
X166822845Y-93862071D01*
X166655931Y-94152357D02*
X166639240Y-94166871D01*
X166622548Y-94195900D01*
X166622548Y-94268471D01*
X166639240Y-94297500D01*
X166655931Y-94312014D01*
X166689314Y-94326528D01*
X166722697Y-94326528D01*
X166772771Y-94312014D01*
X166973068Y-94137842D01*
X166973068Y-94326528D01*
D15*
X156993771Y-85819342D02*
X157919057Y-85819342D01*
X158027914Y-85873771D01*
X158082342Y-85928200D01*
X158136771Y-86037057D01*
X158136771Y-86254771D01*
X158082342Y-86363628D01*
X158027914Y-86418057D01*
X157919057Y-86472485D01*
X156993771Y-86472485D01*
X157102628Y-86962342D02*
X157048200Y-87016771D01*
X156993771Y-87125628D01*
X156993771Y-87397771D01*
X157048200Y-87506628D01*
X157102628Y-87561057D01*
X157211485Y-87615485D01*
X157320342Y-87615485D01*
X157483628Y-87561057D01*
X158136771Y-86907914D01*
X158136771Y-87615485D01*
D16*
X138547323Y-91671019D02*
X139575419Y-91671019D01*
X139696371Y-91610542D01*
X139756847Y-91550066D01*
X139817323Y-91429114D01*
X139817323Y-91187209D01*
X139756847Y-91066257D01*
X139696371Y-91005780D01*
X139575419Y-90945304D01*
X138547323Y-90945304D01*
X138970657Y-89796257D02*
X139817323Y-89796257D01*
X138486847Y-90098638D02*
X139393990Y-90401019D01*
X139393990Y-89614828D01*
M02*
