G04 #@! TF.FileFunction,Legend,Top*
%FSLAX46Y46*%
G04 Gerber Fmt 4.6, Leading zero omitted, Abs format (unit mm)*
G04 Created by KiCad (PCBNEW 4.1.0-alpha+201605292346+6852~44~ubuntu14.04.1-product) date Thu Jun  2 19:47:09 2016*
%MOMM*%
%LPD*%
G01*
G04 APERTURE LIST*
%ADD10C,0.150000*%
%ADD11C,0.250000*%
%ADD12C,0.071120*%
%ADD13C,0.127000*%
%ADD14C,0.119380*%
%ADD15C,0.099060*%
%ADD16C,0.254000*%
%ADD17C,0.078740*%
%ADD18C,0.203200*%
%ADD19C,0.000120*%
%ADD20C,0.152400*%
%ADD21C,0.040640*%
%ADD22C,0.063500*%
%ADD23C,0.114300*%
%ADD24C,0.190500*%
%ADD25C,0.200000*%
%ADD26C,0.109220*%
%ADD27C,0.088900*%
G04 APERTURE END LIST*
D10*
D11*
X148492200Y-83148466D02*
X148968390Y-83148466D01*
X148396961Y-83434180D02*
X148730295Y-82434180D01*
X149063628Y-83434180D01*
X149254104Y-82434180D02*
X149825533Y-82434180D01*
X149539819Y-83434180D02*
X149539819Y-82434180D01*
X150206485Y-83434180D02*
X150396961Y-83434180D01*
X150492200Y-83386561D01*
X150539819Y-83338942D01*
X150635057Y-83196085D01*
X150682676Y-83005609D01*
X150682676Y-82624657D01*
X150635057Y-82529419D01*
X150587438Y-82481800D01*
X150492200Y-82434180D01*
X150301723Y-82434180D01*
X150206485Y-82481800D01*
X150158866Y-82529419D01*
X150111247Y-82624657D01*
X150111247Y-82862752D01*
X150158866Y-82957990D01*
X150206485Y-83005609D01*
X150301723Y-83053228D01*
X150492200Y-83053228D01*
X150587438Y-83005609D01*
X150635057Y-82957990D01*
X150682676Y-82862752D01*
X151635057Y-83434180D02*
X151063628Y-83434180D01*
X151349342Y-83434180D02*
X151349342Y-82434180D01*
X151254104Y-82577038D01*
X151158866Y-82672276D01*
X151063628Y-82719895D01*
X152016009Y-83386561D02*
X152158866Y-83434180D01*
X152396961Y-83434180D01*
X152492200Y-83386561D01*
X152539819Y-83338942D01*
X152587438Y-83243704D01*
X152587438Y-83148466D01*
X152539819Y-83053228D01*
X152492200Y-83005609D01*
X152396961Y-82957990D01*
X152206485Y-82910371D01*
X152111247Y-82862752D01*
X152063628Y-82815133D01*
X152016009Y-82719895D01*
X152016009Y-82624657D01*
X152063628Y-82529419D01*
X152111247Y-82481800D01*
X152206485Y-82434180D01*
X152444580Y-82434180D01*
X152587438Y-82481800D01*
X152968390Y-83148466D02*
X153444580Y-83148466D01*
X152873152Y-83434180D02*
X153206485Y-82434180D01*
X153539819Y-83434180D01*
X153873152Y-83434180D02*
X153873152Y-82434180D01*
X154206485Y-83148466D01*
X154539819Y-82434180D01*
X154539819Y-83434180D01*
X155063628Y-83434180D02*
X155254104Y-83434180D01*
X155349342Y-83386561D01*
X155396961Y-83338942D01*
X155492200Y-83196085D01*
X155539819Y-83005609D01*
X155539819Y-82624657D01*
X155492200Y-82529419D01*
X155444580Y-82481800D01*
X155349342Y-82434180D01*
X155158866Y-82434180D01*
X155063628Y-82481800D01*
X155016009Y-82529419D01*
X154968390Y-82624657D01*
X154968390Y-82862752D01*
X155016009Y-82957990D01*
X155063628Y-83005609D01*
X155158866Y-83053228D01*
X155349342Y-83053228D01*
X155444580Y-83005609D01*
X155492200Y-82957990D01*
X155539819Y-82862752D01*
X155968390Y-83434180D02*
X155968390Y-82434180D01*
X156539819Y-83434180D01*
X156539819Y-82434180D01*
X157539819Y-83434180D02*
X156968390Y-83434180D01*
X157254104Y-83434180D02*
X157254104Y-82434180D01*
X157158866Y-82577038D01*
X157063628Y-82672276D01*
X156968390Y-82719895D01*
X157920771Y-82529419D02*
X157968390Y-82481800D01*
X158063628Y-82434180D01*
X158301723Y-82434180D01*
X158396961Y-82481800D01*
X158444580Y-82529419D01*
X158492200Y-82624657D01*
X158492200Y-82719895D01*
X158444580Y-82862752D01*
X157873152Y-83434180D01*
X158492200Y-83434180D01*
X175307714Y-104274880D02*
X175307714Y-103274880D01*
X175307714Y-103751071D02*
X175879142Y-103751071D01*
X175879142Y-104274880D02*
X175879142Y-103274880D01*
X176688666Y-103751071D02*
X176355333Y-103751071D01*
X176355333Y-104274880D02*
X176355333Y-103274880D01*
X176831523Y-103274880D01*
X141338395Y-82672300D02*
X141243157Y-82624680D01*
X141100300Y-82624680D01*
X140957442Y-82672300D01*
X140862204Y-82767538D01*
X140814585Y-82862776D01*
X140766966Y-83053252D01*
X140766966Y-83196109D01*
X140814585Y-83386585D01*
X140862204Y-83481823D01*
X140957442Y-83577061D01*
X141100300Y-83624680D01*
X141195538Y-83624680D01*
X141338395Y-83577061D01*
X141386014Y-83529442D01*
X141386014Y-83196109D01*
X141195538Y-83196109D01*
X141814585Y-83624680D02*
X141814585Y-82624680D01*
X142386014Y-83624680D01*
X142386014Y-82624680D01*
X142862204Y-83624680D02*
X142862204Y-82624680D01*
X143100300Y-82624680D01*
X143243157Y-82672300D01*
X143338395Y-82767538D01*
X143386014Y-82862776D01*
X143433633Y-83053252D01*
X143433633Y-83196109D01*
X143386014Y-83386585D01*
X143338395Y-83481823D01*
X143243157Y-83577061D01*
X143100300Y-83624680D01*
X142862204Y-83624680D01*
X133388123Y-82573880D02*
X132911933Y-82573880D01*
X132864314Y-83050071D01*
X132911933Y-83002452D01*
X133007171Y-82954833D01*
X133245266Y-82954833D01*
X133340504Y-83002452D01*
X133388123Y-83050071D01*
X133435742Y-83145309D01*
X133435742Y-83383404D01*
X133388123Y-83478642D01*
X133340504Y-83526261D01*
X133245266Y-83573880D01*
X133007171Y-83573880D01*
X132911933Y-83526261D01*
X132864314Y-83478642D01*
X133721457Y-82573880D02*
X134054790Y-83573880D01*
X134388123Y-82573880D01*
X167093995Y-103351080D02*
X167665423Y-103351080D01*
X167379709Y-104351080D02*
X167379709Y-103351080D01*
X167903519Y-103351080D02*
X168570185Y-104351080D01*
X168570185Y-103351080D02*
X167903519Y-104351080D01*
D12*
X142684500Y-89509600D02*
X142176500Y-89509600D01*
X142176500Y-89509600D02*
X142176500Y-90271600D01*
X142176500Y-90271600D02*
X142684500Y-90271600D01*
X143192500Y-89509600D02*
X143700500Y-89509600D01*
X143700500Y-89509600D02*
X143700500Y-90271600D01*
X143700500Y-90271600D02*
X143192500Y-90271600D01*
X176466500Y-89839800D02*
X175958500Y-89839800D01*
X175958500Y-89839800D02*
X175958500Y-90601800D01*
X175958500Y-90601800D02*
X176466500Y-90601800D01*
X176974500Y-89839800D02*
X177482500Y-89839800D01*
X177482500Y-89839800D02*
X177482500Y-90601800D01*
X177482500Y-90601800D02*
X176974500Y-90601800D01*
X176580800Y-97078800D02*
X176580800Y-96570800D01*
X176580800Y-96570800D02*
X175818800Y-96570800D01*
X175818800Y-96570800D02*
X175818800Y-97078800D01*
X176580800Y-97586800D02*
X176580800Y-98094800D01*
X176580800Y-98094800D02*
X175818800Y-98094800D01*
X175818800Y-98094800D02*
X175818800Y-97586800D01*
X176479200Y-87947500D02*
X175971200Y-87947500D01*
X175971200Y-87947500D02*
X175971200Y-88709500D01*
X175971200Y-88709500D02*
X176479200Y-88709500D01*
X176987200Y-87947500D02*
X177495200Y-87947500D01*
X177495200Y-87947500D02*
X177495200Y-88709500D01*
X177495200Y-88709500D02*
X176987200Y-88709500D01*
X176453800Y-94183200D02*
X175945800Y-94183200D01*
X175945800Y-94183200D02*
X175945800Y-94945200D01*
X175945800Y-94945200D02*
X176453800Y-94945200D01*
X176961800Y-94183200D02*
X177469800Y-94183200D01*
X177469800Y-94183200D02*
X177469800Y-94945200D01*
X177469800Y-94945200D02*
X176961800Y-94945200D01*
X176453800Y-91948000D02*
X175945800Y-91948000D01*
X175945800Y-91948000D02*
X175945800Y-92710000D01*
X175945800Y-92710000D02*
X176453800Y-92710000D01*
X176961800Y-91948000D02*
X177469800Y-91948000D01*
X177469800Y-91948000D02*
X177469800Y-92710000D01*
X177469800Y-92710000D02*
X176961800Y-92710000D01*
X147218400Y-85293200D02*
X147218400Y-84785200D01*
X147218400Y-84785200D02*
X146456400Y-84785200D01*
X146456400Y-84785200D02*
X146456400Y-85293200D01*
X147218400Y-85801200D02*
X147218400Y-86309200D01*
X147218400Y-86309200D02*
X146456400Y-86309200D01*
X146456400Y-86309200D02*
X146456400Y-85801200D01*
X145224500Y-103657400D02*
X145732500Y-103657400D01*
X145732500Y-103657400D02*
X145732500Y-102895400D01*
X145732500Y-102895400D02*
X145224500Y-102895400D01*
X144716500Y-103657400D02*
X144208500Y-103657400D01*
X144208500Y-103657400D02*
X144208500Y-102895400D01*
X144208500Y-102895400D02*
X144716500Y-102895400D01*
X145770600Y-101777800D02*
X146278600Y-101777800D01*
X146278600Y-101777800D02*
X146278600Y-101015800D01*
X146278600Y-101015800D02*
X145770600Y-101015800D01*
X145262600Y-101777800D02*
X144754600Y-101777800D01*
X144754600Y-101777800D02*
X144754600Y-101015800D01*
X144754600Y-101015800D02*
X145262600Y-101015800D01*
X144360900Y-85509100D02*
X143852900Y-85509100D01*
X143852900Y-85509100D02*
X143852900Y-86271100D01*
X143852900Y-86271100D02*
X144360900Y-86271100D01*
X144868900Y-85509100D02*
X145376900Y-85509100D01*
X145376900Y-85509100D02*
X145376900Y-86271100D01*
X145376900Y-86271100D02*
X144868900Y-86271100D01*
X145935700Y-92087700D02*
X145935700Y-91579700D01*
X145935700Y-91579700D02*
X145173700Y-91579700D01*
X145173700Y-91579700D02*
X145173700Y-92087700D01*
X145935700Y-92595700D02*
X145935700Y-93103700D01*
X145935700Y-93103700D02*
X145173700Y-93103700D01*
X145173700Y-93103700D02*
X145173700Y-92595700D01*
X151536400Y-103987600D02*
X151536400Y-104495600D01*
X151536400Y-104495600D02*
X152298400Y-104495600D01*
X152298400Y-104495600D02*
X152298400Y-103987600D01*
X151536400Y-103479600D02*
X151536400Y-102971600D01*
X151536400Y-102971600D02*
X152298400Y-102971600D01*
X152298400Y-102971600D02*
X152298400Y-103479600D01*
X176110900Y-83908900D02*
X176110900Y-84416900D01*
X176110900Y-84416900D02*
X176872900Y-84416900D01*
X176872900Y-84416900D02*
X176872900Y-83908900D01*
X176110900Y-83400900D02*
X176110900Y-82892900D01*
X176110900Y-82892900D02*
X176872900Y-82892900D01*
X176872900Y-82892900D02*
X176872900Y-83400900D01*
X176834800Y-85255100D02*
X176834800Y-84747100D01*
X176834800Y-84747100D02*
X176072800Y-84747100D01*
X176072800Y-84747100D02*
X176072800Y-85255100D01*
X176834800Y-85763100D02*
X176834800Y-86271100D01*
X176834800Y-86271100D02*
X176072800Y-86271100D01*
X176072800Y-86271100D02*
X176072800Y-85763100D01*
X141084300Y-94170500D02*
X140576300Y-94170500D01*
X140576300Y-94170500D02*
X140576300Y-94932500D01*
X140576300Y-94932500D02*
X141084300Y-94932500D01*
X141592300Y-94170500D02*
X142100300Y-94170500D01*
X142100300Y-94170500D02*
X142100300Y-94932500D01*
X142100300Y-94932500D02*
X141592300Y-94932500D01*
X142875000Y-95326200D02*
X142875000Y-95834200D01*
X142875000Y-95834200D02*
X143637000Y-95834200D01*
X143637000Y-95834200D02*
X143637000Y-95326200D01*
X142875000Y-94818200D02*
X142875000Y-94310200D01*
X142875000Y-94310200D02*
X143637000Y-94310200D01*
X143637000Y-94310200D02*
X143637000Y-94818200D01*
X140398500Y-101092000D02*
X140906500Y-101092000D01*
X140906500Y-101092000D02*
X140906500Y-100330000D01*
X140906500Y-100330000D02*
X140398500Y-100330000D01*
X139890500Y-101092000D02*
X139382500Y-101092000D01*
X139382500Y-101092000D02*
X139382500Y-100330000D01*
X139382500Y-100330000D02*
X139890500Y-100330000D01*
X140373100Y-99987100D02*
X140881100Y-99987100D01*
X140881100Y-99987100D02*
X140881100Y-99225100D01*
X140881100Y-99225100D02*
X140373100Y-99225100D01*
X139865100Y-99987100D02*
X139357100Y-99987100D01*
X139357100Y-99987100D02*
X139357100Y-99225100D01*
X139357100Y-99225100D02*
X139865100Y-99225100D01*
X143535400Y-97002600D02*
X144043400Y-97002600D01*
X144043400Y-97002600D02*
X144043400Y-96240600D01*
X144043400Y-96240600D02*
X143535400Y-96240600D01*
X143027400Y-97002600D02*
X142519400Y-97002600D01*
X142519400Y-97002600D02*
X142519400Y-96240600D01*
X142519400Y-96240600D02*
X143027400Y-96240600D01*
X143433800Y-103759000D02*
X143941800Y-103759000D01*
X143941800Y-103759000D02*
X143941800Y-102997000D01*
X143941800Y-102997000D02*
X143433800Y-102997000D01*
X142925800Y-103759000D02*
X142417800Y-103759000D01*
X142417800Y-103759000D02*
X142417800Y-102997000D01*
X142417800Y-102997000D02*
X142925800Y-102997000D01*
X146735800Y-92392500D02*
X146227800Y-92392500D01*
X146227800Y-92392500D02*
X146227800Y-93154500D01*
X146227800Y-93154500D02*
X146735800Y-93154500D01*
X147243800Y-92392500D02*
X147751800Y-92392500D01*
X147751800Y-92392500D02*
X147751800Y-93154500D01*
X147751800Y-93154500D02*
X147243800Y-93154500D01*
X143027400Y-97218500D02*
X142519400Y-97218500D01*
X142519400Y-97218500D02*
X142519400Y-97980500D01*
X142519400Y-97980500D02*
X143027400Y-97980500D01*
X143535400Y-97218500D02*
X144043400Y-97218500D01*
X144043400Y-97218500D02*
X144043400Y-97980500D01*
X144043400Y-97980500D02*
X143535400Y-97980500D01*
X146723100Y-95656400D02*
X146215100Y-95656400D01*
X146215100Y-95656400D02*
X146215100Y-96418400D01*
X146215100Y-96418400D02*
X146723100Y-96418400D01*
X147231100Y-95656400D02*
X147739100Y-95656400D01*
X147739100Y-95656400D02*
X147739100Y-96418400D01*
X147739100Y-96418400D02*
X147231100Y-96418400D01*
X146177000Y-99504500D02*
X145669000Y-99504500D01*
X145669000Y-99504500D02*
X145669000Y-100266500D01*
X145669000Y-100266500D02*
X146177000Y-100266500D01*
X146685000Y-99504500D02*
X147193000Y-99504500D01*
X147193000Y-99504500D02*
X147193000Y-100266500D01*
X147193000Y-100266500D02*
X146685000Y-100266500D01*
X146900900Y-103454200D02*
X146900900Y-102946200D01*
X146900900Y-102946200D02*
X146138900Y-102946200D01*
X146138900Y-102946200D02*
X146138900Y-103454200D01*
X146900900Y-103962200D02*
X146900900Y-104470200D01*
X146900900Y-104470200D02*
X146138900Y-104470200D01*
X146138900Y-104470200D02*
X146138900Y-103962200D01*
X147294600Y-97688400D02*
X147802600Y-97688400D01*
X147802600Y-97688400D02*
X147802600Y-96926400D01*
X147802600Y-96926400D02*
X147294600Y-96926400D01*
X146786600Y-97688400D02*
X146278600Y-97688400D01*
X146278600Y-97688400D02*
X146278600Y-96926400D01*
X146278600Y-96926400D02*
X146786600Y-96926400D01*
D13*
X174815500Y-86233000D02*
X175628300Y-86233000D01*
X175602900Y-85115400D02*
X174815500Y-85115400D01*
X175628300Y-84861400D02*
X175628300Y-86487000D01*
X175628300Y-86487000D02*
X174815500Y-86487000D01*
X174815500Y-86487000D02*
X174815500Y-84861400D01*
X174815500Y-84861400D02*
X175628300Y-84861400D01*
D12*
X168694100Y-84213700D02*
X168694100Y-83705700D01*
X168694100Y-83705700D02*
X167932100Y-83705700D01*
X167932100Y-83705700D02*
X167932100Y-84213700D01*
X168694100Y-84721700D02*
X168694100Y-85229700D01*
X168694100Y-85229700D02*
X167932100Y-85229700D01*
X167932100Y-85229700D02*
X167932100Y-84721700D01*
X141795500Y-100101400D02*
X141795500Y-100609400D01*
X141795500Y-100609400D02*
X142557500Y-100609400D01*
X142557500Y-100609400D02*
X142557500Y-100101400D01*
X141795500Y-99593400D02*
X141795500Y-99085400D01*
X141795500Y-99085400D02*
X142557500Y-99085400D01*
X142557500Y-99085400D02*
X142557500Y-99593400D01*
X147548600Y-99364800D02*
X148056600Y-99364800D01*
X148056600Y-99364800D02*
X148056600Y-98602800D01*
X148056600Y-98602800D02*
X147548600Y-98602800D01*
X147040600Y-99364800D02*
X146532600Y-99364800D01*
X146532600Y-99364800D02*
X146532600Y-98602800D01*
X146532600Y-98602800D02*
X147040600Y-98602800D01*
D13*
X145973800Y-93637100D02*
X145973800Y-94449900D01*
X147091400Y-94424500D02*
X147091400Y-93637100D01*
X147345400Y-94449900D02*
X145719800Y-94449900D01*
X145719800Y-94449900D02*
X145719800Y-93637100D01*
X145719800Y-93637100D02*
X147345400Y-93637100D01*
X147345400Y-93637100D02*
X147345400Y-94449900D01*
X158496000Y-105054400D02*
X156718000Y-105054400D01*
X156718000Y-105054400D02*
X156718000Y-102006400D01*
X156718000Y-102006400D02*
X158496000Y-102006400D01*
X158496000Y-102006400D02*
X158496000Y-105054400D01*
X148107400Y-88392000D02*
X148107400Y-90170000D01*
X148107400Y-90170000D02*
X145059400Y-90170000D01*
X145059400Y-90170000D02*
X145059400Y-88392000D01*
X145059400Y-88392000D02*
X148107400Y-88392000D01*
X142709900Y-101015800D02*
X142709900Y-101828600D01*
X143827500Y-101803200D02*
X143827500Y-101015800D01*
X144081500Y-101828600D02*
X142455900Y-101828600D01*
X142455900Y-101828600D02*
X142455900Y-101015800D01*
X142455900Y-101015800D02*
X144081500Y-101015800D01*
X144081500Y-101015800D02*
X144081500Y-101828600D01*
D14*
X138851640Y-94673420D02*
X138851640Y-93974920D01*
X138851640Y-95674180D02*
X138851640Y-96372680D01*
X137551160Y-94673420D02*
X137551160Y-93974920D01*
X137551160Y-96372680D02*
X137551160Y-95674180D01*
X137566400Y-93974920D02*
X138836400Y-93974920D01*
X138836400Y-96372680D02*
X137566400Y-96372680D01*
X143009620Y-87538560D02*
X142311120Y-87538560D01*
X144010380Y-87538560D02*
X144708880Y-87538560D01*
X143009620Y-88839040D02*
X142311120Y-88839040D01*
X144708880Y-88839040D02*
X144010380Y-88839040D01*
X142311120Y-88823800D02*
X142311120Y-87553800D01*
X144708880Y-87553800D02*
X144708880Y-88823800D01*
X138127740Y-87993220D02*
X138127740Y-87294720D01*
X138127740Y-88993980D02*
X138127740Y-89692480D01*
X136827260Y-87993220D02*
X136827260Y-87294720D01*
X136827260Y-89692480D02*
X136827260Y-88993980D01*
X136842500Y-87294720D02*
X138112500Y-87294720D01*
X138112500Y-89692480D02*
X136842500Y-89692480D01*
X174061120Y-82661760D02*
X173362620Y-82661760D01*
X175061880Y-82661760D02*
X175760380Y-82661760D01*
X174061120Y-83962240D02*
X173362620Y-83962240D01*
X175760380Y-83962240D02*
X175061880Y-83962240D01*
X173362620Y-83947000D02*
X173362620Y-82677000D01*
X175760380Y-82677000D02*
X175760380Y-83947000D01*
X140256260Y-89514680D02*
X140256260Y-90213180D01*
X140256260Y-88513920D02*
X140256260Y-87815420D01*
X141556740Y-89514680D02*
X141556740Y-90213180D01*
X141556740Y-87815420D02*
X141556740Y-88513920D01*
X141541500Y-90213180D02*
X140271500Y-90213180D01*
X140271500Y-87815420D02*
X141541500Y-87815420D01*
X155018740Y-103106220D02*
X155018740Y-102407720D01*
X155018740Y-104106980D02*
X155018740Y-104805480D01*
X153718260Y-103106220D02*
X153718260Y-102407720D01*
X153718260Y-104805480D02*
X153718260Y-104106980D01*
X153733500Y-102407720D02*
X155003500Y-102407720D01*
X155003500Y-104805480D02*
X153733500Y-104805480D01*
X160042860Y-103967280D02*
X160042860Y-104665780D01*
X160042860Y-102966520D02*
X160042860Y-102268020D01*
X161343340Y-103967280D02*
X161343340Y-104665780D01*
X161343340Y-102268020D02*
X161343340Y-102966520D01*
X161328100Y-104665780D02*
X160058100Y-104665780D01*
X160058100Y-102268020D02*
X161328100Y-102268020D01*
D12*
X144856200Y-87249000D02*
X145364200Y-87249000D01*
X145364200Y-87249000D02*
X145364200Y-86487000D01*
X145364200Y-86487000D02*
X144856200Y-86487000D01*
X144348200Y-87249000D02*
X143840200Y-87249000D01*
X143840200Y-87249000D02*
X143840200Y-86487000D01*
X143840200Y-86487000D02*
X144348200Y-86487000D01*
X161429700Y-83896200D02*
X161429700Y-83388200D01*
X161429700Y-83388200D02*
X160667700Y-83388200D01*
X160667700Y-83388200D02*
X160667700Y-83896200D01*
X161429700Y-84404200D02*
X161429700Y-84912200D01*
X161429700Y-84912200D02*
X160667700Y-84912200D01*
X160667700Y-84912200D02*
X160667700Y-84404200D01*
D14*
X144459960Y-97401380D02*
X144459960Y-98099880D01*
X144459960Y-96400620D02*
X144459960Y-95702120D01*
X145760440Y-97401380D02*
X145760440Y-98099880D01*
X145760440Y-95702120D02*
X145760440Y-96400620D01*
X145745200Y-98099880D02*
X144475200Y-98099880D01*
X144475200Y-95702120D02*
X145745200Y-95702120D01*
X143746220Y-98714560D02*
X143047720Y-98714560D01*
X144746980Y-98714560D02*
X145445480Y-98714560D01*
X143746220Y-100015040D02*
X143047720Y-100015040D01*
X145445480Y-100015040D02*
X144746980Y-100015040D01*
X143047720Y-99999800D02*
X143047720Y-98729800D01*
X145445480Y-98729800D02*
X145445480Y-99999800D01*
D12*
X144691100Y-94399100D02*
X144691100Y-93891100D01*
X144691100Y-93891100D02*
X143929100Y-93891100D01*
X143929100Y-93891100D02*
X143929100Y-94399100D01*
X144691100Y-94907100D02*
X144691100Y-95415100D01*
X144691100Y-95415100D02*
X143929100Y-95415100D01*
X143929100Y-95415100D02*
X143929100Y-94907100D01*
D15*
X130644900Y-106537760D02*
X130644900Y-106735880D01*
X138645900Y-106537760D02*
X138645900Y-106735880D01*
X130644900Y-101137720D02*
X138645900Y-101137720D01*
X138645900Y-101137720D02*
X138645900Y-106537760D01*
X138645900Y-106735880D02*
X130644900Y-106735880D01*
X130644900Y-106537760D02*
X130644900Y-101137720D01*
D10*
X168050000Y-87126000D02*
X167150000Y-87126000D01*
X167150000Y-87126000D02*
X167150000Y-88026000D01*
X167700000Y-87476000D02*
X167450000Y-87726000D01*
X167450000Y-87476000D02*
X175450000Y-87476000D01*
X175450000Y-87476000D02*
X175450000Y-99976000D01*
X175450000Y-99976000D02*
X167450000Y-99976000D01*
X167450000Y-99976000D02*
X167450000Y-87476000D01*
D16*
X164021100Y-87637100D02*
X164021100Y-85737100D01*
X164021100Y-85737100D02*
X162121100Y-85737100D01*
X163621100Y-86137100D02*
X163121100Y-86637100D01*
X163621100Y-86637100D02*
X163121100Y-86137100D01*
X163621100Y-86937100D02*
X162821100Y-86137100D01*
X163621100Y-87237100D02*
X163621100Y-86137100D01*
X163621100Y-86137100D02*
X162521100Y-86137100D01*
X163621100Y-101137100D02*
X148621100Y-101137100D01*
X148621100Y-101137100D02*
X148621100Y-86137100D01*
X148621100Y-86137100D02*
X162521100Y-86137100D01*
X162521100Y-86137100D02*
X163621100Y-87237100D01*
X163621100Y-87237100D02*
X163621100Y-101137100D01*
D14*
X170174920Y-81823560D02*
X169476420Y-81823560D01*
X171175680Y-81823560D02*
X171874180Y-81823560D01*
X170174920Y-83124040D02*
X169476420Y-83124040D01*
X171874180Y-83124040D02*
X171175680Y-83124040D01*
X169476420Y-83108800D02*
X169476420Y-81838800D01*
X171874180Y-81838800D02*
X171874180Y-83108800D01*
X170512740Y-84881720D02*
X170512740Y-84183220D01*
X170512740Y-85882480D02*
X170512740Y-86580980D01*
X169212260Y-84881720D02*
X169212260Y-84183220D01*
X169212260Y-86580980D02*
X169212260Y-85882480D01*
X169227500Y-84183220D02*
X170497500Y-84183220D01*
X170497500Y-86580980D02*
X169227500Y-86580980D01*
D17*
X172388850Y-83723480D02*
G75*
G03X172388850Y-83723480I-159070J0D01*
G01*
X173088300Y-86169500D02*
X172072300Y-86169500D01*
X173088300Y-83566000D02*
X172072300Y-83566000D01*
X172072300Y-86169500D02*
X172072300Y-83566000D01*
X173088300Y-83566000D02*
X173088300Y-86169500D01*
D12*
X167830500Y-85585300D02*
X167322500Y-85585300D01*
X167322500Y-85585300D02*
X167322500Y-86347300D01*
X167322500Y-86347300D02*
X167830500Y-86347300D01*
X168338500Y-85585300D02*
X168846500Y-85585300D01*
X168846500Y-85585300D02*
X168846500Y-86347300D01*
X168846500Y-86347300D02*
X168338500Y-86347300D01*
D10*
X143386800Y-93800400D02*
X143736800Y-93800400D01*
X143736800Y-93800400D02*
X143736800Y-93450400D01*
D18*
X143436340Y-93499940D02*
X140637260Y-93499940D01*
X140637260Y-93499940D02*
X140637260Y-90700860D01*
X140637260Y-90700860D02*
X143436340Y-90700860D01*
X143436340Y-90700860D02*
X143436340Y-93499940D01*
D19*
X143005474Y-92849700D02*
G75*
G03X143005474Y-92849700I-193974J0D01*
G01*
D14*
X140675360Y-86517480D02*
X140675360Y-87215980D01*
X140675360Y-85516720D02*
X140675360Y-84818220D01*
X141975840Y-86517480D02*
X141975840Y-87215980D01*
X141975840Y-84818220D02*
X141975840Y-85516720D01*
X141960600Y-87215980D02*
X140690600Y-87215980D01*
X140690600Y-84818220D02*
X141960600Y-84818220D01*
D12*
X139319000Y-97878900D02*
X139319000Y-98386900D01*
X139319000Y-98386900D02*
X140081000Y-98386900D01*
X140081000Y-98386900D02*
X140081000Y-97878900D01*
X139319000Y-97370900D02*
X139319000Y-96862900D01*
X139319000Y-96862900D02*
X140081000Y-96862900D01*
X140081000Y-96862900D02*
X140081000Y-97370900D01*
X140589000Y-97853500D02*
X140589000Y-98361500D01*
X140589000Y-98361500D02*
X141351000Y-98361500D01*
X141351000Y-98361500D02*
X141351000Y-97853500D01*
X140589000Y-97345500D02*
X140589000Y-96837500D01*
X140589000Y-96837500D02*
X141351000Y-96837500D01*
X141351000Y-96837500D02*
X141351000Y-97345500D01*
D15*
X135737600Y-98679000D02*
G75*
G03X135737600Y-98679000I-127000J0D01*
G01*
X136753600Y-98679000D02*
X135737600Y-98679000D01*
X135737600Y-98679000D02*
X135737600Y-97155000D01*
X135737600Y-97155000D02*
X136753600Y-97155000D01*
X137769600Y-97155000D02*
X138785600Y-97155000D01*
X138785600Y-97155000D02*
X138785600Y-98679000D01*
X138785600Y-98679000D02*
X137769600Y-98679000D01*
X135839200Y-86423500D02*
G75*
G03X135839200Y-86423500I-127000J0D01*
G01*
X136855200Y-86423500D02*
X135839200Y-86423500D01*
X135839200Y-86423500D02*
X135839200Y-84899500D01*
X135839200Y-84899500D02*
X136855200Y-84899500D01*
X137871200Y-84899500D02*
X138887200Y-84899500D01*
X138887200Y-84899500D02*
X138887200Y-86423500D01*
X138887200Y-86423500D02*
X137871200Y-86423500D01*
D20*
X140157200Y-81851500D02*
X140157200Y-84391500D01*
X140157200Y-84391500D02*
X135077200Y-84391500D01*
X135077200Y-84391500D02*
X135077200Y-81851500D01*
X135077200Y-81851500D02*
X140157200Y-81851500D01*
X166700200Y-102565200D02*
X166700200Y-105105200D01*
X166700200Y-105105200D02*
X161620200Y-105105200D01*
X161620200Y-105105200D02*
X161620200Y-102565200D01*
X161620200Y-102565200D02*
X166700200Y-102565200D01*
D12*
X153454100Y-84442300D02*
X152946100Y-84442300D01*
X152946100Y-84442300D02*
X152946100Y-85204300D01*
X152946100Y-85204300D02*
X153454100Y-85204300D01*
X153962100Y-84442300D02*
X154470100Y-84442300D01*
X154470100Y-84442300D02*
X154470100Y-85204300D01*
X154470100Y-85204300D02*
X153962100Y-85204300D01*
X142887700Y-90015785D02*
X142873185Y-90032477D01*
X142829642Y-90049168D01*
X142800614Y-90049168D01*
X142757071Y-90032477D01*
X142728042Y-89999094D01*
X142713528Y-89965711D01*
X142699014Y-89898945D01*
X142699014Y-89848871D01*
X142713528Y-89782105D01*
X142728042Y-89748722D01*
X142757071Y-89715340D01*
X142800614Y-89698648D01*
X142829642Y-89698648D01*
X142873185Y-89715340D01*
X142887700Y-89732031D01*
X143148957Y-89698648D02*
X143090900Y-89698648D01*
X143061871Y-89715340D01*
X143047357Y-89732031D01*
X143018328Y-89782105D01*
X143003814Y-89848871D01*
X143003814Y-89982402D01*
X143018328Y-90015785D01*
X143032842Y-90032477D01*
X143061871Y-90049168D01*
X143119928Y-90049168D01*
X143148957Y-90032477D01*
X143163471Y-90015785D01*
X143177985Y-89982402D01*
X143177985Y-89898945D01*
X143163471Y-89865562D01*
X143148957Y-89848871D01*
X143119928Y-89832180D01*
X143061871Y-89832180D01*
X143032842Y-89848871D01*
X143018328Y-89865562D01*
X143003814Y-89898945D01*
X176524557Y-90345985D02*
X176510042Y-90362677D01*
X176466500Y-90379368D01*
X176437471Y-90379368D01*
X176393928Y-90362677D01*
X176364900Y-90329294D01*
X176350385Y-90295911D01*
X176335871Y-90229145D01*
X176335871Y-90179071D01*
X176350385Y-90112305D01*
X176364900Y-90078922D01*
X176393928Y-90045540D01*
X176437471Y-90028848D01*
X176466500Y-90028848D01*
X176510042Y-90045540D01*
X176524557Y-90062231D01*
X176814842Y-90379368D02*
X176640671Y-90379368D01*
X176727757Y-90379368D02*
X176727757Y-90028848D01*
X176698728Y-90078922D01*
X176669700Y-90112305D01*
X176640671Y-90128997D01*
X176930957Y-90062231D02*
X176945471Y-90045540D01*
X176974500Y-90028848D01*
X177047071Y-90028848D01*
X177076100Y-90045540D01*
X177090614Y-90062231D01*
X177105128Y-90095614D01*
X177105128Y-90128997D01*
X177090614Y-90179071D01*
X176916442Y-90379368D01*
X177105128Y-90379368D01*
X176324985Y-97528742D02*
X176341677Y-97543257D01*
X176358368Y-97586800D01*
X176358368Y-97615828D01*
X176341677Y-97659371D01*
X176308294Y-97688400D01*
X176274911Y-97702914D01*
X176208145Y-97717428D01*
X176158071Y-97717428D01*
X176091305Y-97702914D01*
X176057922Y-97688400D01*
X176024540Y-97659371D01*
X176007848Y-97615828D01*
X176007848Y-97586800D01*
X176024540Y-97543257D01*
X176041231Y-97528742D01*
X176358368Y-97238457D02*
X176358368Y-97412628D01*
X176358368Y-97325542D02*
X176007848Y-97325542D01*
X176057922Y-97354571D01*
X176091305Y-97383600D01*
X176107997Y-97412628D01*
X176158071Y-97064285D02*
X176141380Y-97093314D01*
X176124688Y-97107828D01*
X176091305Y-97122342D01*
X176074614Y-97122342D01*
X176041231Y-97107828D01*
X176024540Y-97093314D01*
X176007848Y-97064285D01*
X176007848Y-97006228D01*
X176024540Y-96977200D01*
X176041231Y-96962685D01*
X176074614Y-96948171D01*
X176091305Y-96948171D01*
X176124688Y-96962685D01*
X176141380Y-96977200D01*
X176158071Y-97006228D01*
X176158071Y-97064285D01*
X176174762Y-97093314D01*
X176191454Y-97107828D01*
X176224837Y-97122342D01*
X176291602Y-97122342D01*
X176324985Y-97107828D01*
X176341677Y-97093314D01*
X176358368Y-97064285D01*
X176358368Y-97006228D01*
X176341677Y-96977200D01*
X176324985Y-96962685D01*
X176291602Y-96948171D01*
X176224837Y-96948171D01*
X176191454Y-96962685D01*
X176174762Y-96977200D01*
X176158071Y-97006228D01*
X176537257Y-88453685D02*
X176522742Y-88470377D01*
X176479200Y-88487068D01*
X176450171Y-88487068D01*
X176406628Y-88470377D01*
X176377600Y-88436994D01*
X176363085Y-88403611D01*
X176348571Y-88336845D01*
X176348571Y-88286771D01*
X176363085Y-88220005D01*
X176377600Y-88186622D01*
X176406628Y-88153240D01*
X176450171Y-88136548D01*
X176479200Y-88136548D01*
X176522742Y-88153240D01*
X176537257Y-88169931D01*
X176827542Y-88487068D02*
X176653371Y-88487068D01*
X176740457Y-88487068D02*
X176740457Y-88136548D01*
X176711428Y-88186622D01*
X176682400Y-88220005D01*
X176653371Y-88236697D01*
X176972685Y-88487068D02*
X177030742Y-88487068D01*
X177059771Y-88470377D01*
X177074285Y-88453685D01*
X177103314Y-88403611D01*
X177117828Y-88336845D01*
X177117828Y-88203314D01*
X177103314Y-88169931D01*
X177088800Y-88153240D01*
X177059771Y-88136548D01*
X177001714Y-88136548D01*
X176972685Y-88153240D01*
X176958171Y-88169931D01*
X176943657Y-88203314D01*
X176943657Y-88286771D01*
X176958171Y-88320154D01*
X176972685Y-88336845D01*
X177001714Y-88353537D01*
X177059771Y-88353537D01*
X177088800Y-88336845D01*
X177103314Y-88320154D01*
X177117828Y-88286771D01*
X176511857Y-94689385D02*
X176497342Y-94706077D01*
X176453800Y-94722768D01*
X176424771Y-94722768D01*
X176381228Y-94706077D01*
X176352200Y-94672694D01*
X176337685Y-94639311D01*
X176323171Y-94572545D01*
X176323171Y-94522471D01*
X176337685Y-94455705D01*
X176352200Y-94422322D01*
X176381228Y-94388940D01*
X176424771Y-94372248D01*
X176453800Y-94372248D01*
X176497342Y-94388940D01*
X176511857Y-94405631D01*
X176627971Y-94405631D02*
X176642485Y-94388940D01*
X176671514Y-94372248D01*
X176744085Y-94372248D01*
X176773114Y-94388940D01*
X176787628Y-94405631D01*
X176802142Y-94439014D01*
X176802142Y-94472397D01*
X176787628Y-94522471D01*
X176613457Y-94722768D01*
X176802142Y-94722768D01*
X176990828Y-94372248D02*
X177019857Y-94372248D01*
X177048885Y-94388940D01*
X177063400Y-94405631D01*
X177077914Y-94439014D01*
X177092428Y-94505780D01*
X177092428Y-94589237D01*
X177077914Y-94656002D01*
X177063400Y-94689385D01*
X177048885Y-94706077D01*
X177019857Y-94722768D01*
X176990828Y-94722768D01*
X176961800Y-94706077D01*
X176947285Y-94689385D01*
X176932771Y-94656002D01*
X176918257Y-94589237D01*
X176918257Y-94505780D01*
X176932771Y-94439014D01*
X176947285Y-94405631D01*
X176961800Y-94388940D01*
X176990828Y-94372248D01*
X176511857Y-92454185D02*
X176497342Y-92470877D01*
X176453800Y-92487568D01*
X176424771Y-92487568D01*
X176381228Y-92470877D01*
X176352200Y-92437494D01*
X176337685Y-92404111D01*
X176323171Y-92337345D01*
X176323171Y-92287271D01*
X176337685Y-92220505D01*
X176352200Y-92187122D01*
X176381228Y-92153740D01*
X176424771Y-92137048D01*
X176453800Y-92137048D01*
X176497342Y-92153740D01*
X176511857Y-92170431D01*
X176627971Y-92170431D02*
X176642485Y-92153740D01*
X176671514Y-92137048D01*
X176744085Y-92137048D01*
X176773114Y-92153740D01*
X176787628Y-92170431D01*
X176802142Y-92203814D01*
X176802142Y-92237197D01*
X176787628Y-92287271D01*
X176613457Y-92487568D01*
X176802142Y-92487568D01*
X177092428Y-92487568D02*
X176918257Y-92487568D01*
X177005342Y-92487568D02*
X177005342Y-92137048D01*
X176976314Y-92187122D01*
X176947285Y-92220505D01*
X176918257Y-92237197D01*
X146962585Y-85743142D02*
X146979277Y-85757657D01*
X146995968Y-85801200D01*
X146995968Y-85830228D01*
X146979277Y-85873771D01*
X146945894Y-85902800D01*
X146912511Y-85917314D01*
X146845745Y-85931828D01*
X146795671Y-85931828D01*
X146728905Y-85917314D01*
X146695522Y-85902800D01*
X146662140Y-85873771D01*
X146645448Y-85830228D01*
X146645448Y-85801200D01*
X146662140Y-85757657D01*
X146678831Y-85743142D01*
X146678831Y-85627028D02*
X146662140Y-85612514D01*
X146645448Y-85583485D01*
X146645448Y-85510914D01*
X146662140Y-85481885D01*
X146678831Y-85467371D01*
X146712214Y-85452857D01*
X146745597Y-85452857D01*
X146795671Y-85467371D01*
X146995968Y-85641542D01*
X146995968Y-85452857D01*
X146762288Y-85191600D02*
X146995968Y-85191600D01*
X146628757Y-85264171D02*
X146879128Y-85336742D01*
X146879128Y-85148057D01*
X144774557Y-103401585D02*
X144760042Y-103418277D01*
X144716500Y-103434968D01*
X144687471Y-103434968D01*
X144643928Y-103418277D01*
X144614900Y-103384894D01*
X144600385Y-103351511D01*
X144585871Y-103284745D01*
X144585871Y-103234671D01*
X144600385Y-103167905D01*
X144614900Y-103134522D01*
X144643928Y-103101140D01*
X144687471Y-103084448D01*
X144716500Y-103084448D01*
X144760042Y-103101140D01*
X144774557Y-103117831D01*
X144890671Y-103117831D02*
X144905185Y-103101140D01*
X144934214Y-103084448D01*
X145006785Y-103084448D01*
X145035814Y-103101140D01*
X145050328Y-103117831D01*
X145064842Y-103151214D01*
X145064842Y-103184597D01*
X145050328Y-103234671D01*
X144876157Y-103434968D01*
X145064842Y-103434968D01*
X145340614Y-103084448D02*
X145195471Y-103084448D01*
X145180957Y-103251362D01*
X145195471Y-103234671D01*
X145224500Y-103217980D01*
X145297071Y-103217980D01*
X145326100Y-103234671D01*
X145340614Y-103251362D01*
X145355128Y-103284745D01*
X145355128Y-103368202D01*
X145340614Y-103401585D01*
X145326100Y-103418277D01*
X145297071Y-103434968D01*
X145224500Y-103434968D01*
X145195471Y-103418277D01*
X145180957Y-103401585D01*
X145320657Y-101521985D02*
X145306142Y-101538677D01*
X145262600Y-101555368D01*
X145233571Y-101555368D01*
X145190028Y-101538677D01*
X145161000Y-101505294D01*
X145146485Y-101471911D01*
X145131971Y-101405145D01*
X145131971Y-101355071D01*
X145146485Y-101288305D01*
X145161000Y-101254922D01*
X145190028Y-101221540D01*
X145233571Y-101204848D01*
X145262600Y-101204848D01*
X145306142Y-101221540D01*
X145320657Y-101238231D01*
X145436771Y-101238231D02*
X145451285Y-101221540D01*
X145480314Y-101204848D01*
X145552885Y-101204848D01*
X145581914Y-101221540D01*
X145596428Y-101238231D01*
X145610942Y-101271614D01*
X145610942Y-101304997D01*
X145596428Y-101355071D01*
X145422257Y-101555368D01*
X145610942Y-101555368D01*
X145872200Y-101204848D02*
X145814142Y-101204848D01*
X145785114Y-101221540D01*
X145770600Y-101238231D01*
X145741571Y-101288305D01*
X145727057Y-101355071D01*
X145727057Y-101488602D01*
X145741571Y-101521985D01*
X145756085Y-101538677D01*
X145785114Y-101555368D01*
X145843171Y-101555368D01*
X145872200Y-101538677D01*
X145886714Y-101521985D01*
X145901228Y-101488602D01*
X145901228Y-101405145D01*
X145886714Y-101371762D01*
X145872200Y-101355071D01*
X145843171Y-101338380D01*
X145785114Y-101338380D01*
X145756085Y-101355071D01*
X145741571Y-101371762D01*
X145727057Y-101405145D01*
X144418957Y-86015285D02*
X144404442Y-86031977D01*
X144360900Y-86048668D01*
X144331871Y-86048668D01*
X144288328Y-86031977D01*
X144259300Y-85998594D01*
X144244785Y-85965211D01*
X144230271Y-85898445D01*
X144230271Y-85848371D01*
X144244785Y-85781605D01*
X144259300Y-85748222D01*
X144288328Y-85714840D01*
X144331871Y-85698148D01*
X144360900Y-85698148D01*
X144404442Y-85714840D01*
X144418957Y-85731531D01*
X144535071Y-85731531D02*
X144549585Y-85714840D01*
X144578614Y-85698148D01*
X144651185Y-85698148D01*
X144680214Y-85714840D01*
X144694728Y-85731531D01*
X144709242Y-85764914D01*
X144709242Y-85798297D01*
X144694728Y-85848371D01*
X144520557Y-86048668D01*
X144709242Y-86048668D01*
X144883414Y-85848371D02*
X144854385Y-85831680D01*
X144839871Y-85814988D01*
X144825357Y-85781605D01*
X144825357Y-85764914D01*
X144839871Y-85731531D01*
X144854385Y-85714840D01*
X144883414Y-85698148D01*
X144941471Y-85698148D01*
X144970500Y-85714840D01*
X144985014Y-85731531D01*
X144999528Y-85764914D01*
X144999528Y-85781605D01*
X144985014Y-85814988D01*
X144970500Y-85831680D01*
X144941471Y-85848371D01*
X144883414Y-85848371D01*
X144854385Y-85865062D01*
X144839871Y-85881754D01*
X144825357Y-85915137D01*
X144825357Y-85981902D01*
X144839871Y-86015285D01*
X144854385Y-86031977D01*
X144883414Y-86048668D01*
X144941471Y-86048668D01*
X144970500Y-86031977D01*
X144985014Y-86015285D01*
X144999528Y-85981902D01*
X144999528Y-85915137D01*
X144985014Y-85881754D01*
X144970500Y-85865062D01*
X144941471Y-85848371D01*
X145679885Y-92537642D02*
X145696577Y-92552157D01*
X145713268Y-92595700D01*
X145713268Y-92624728D01*
X145696577Y-92668271D01*
X145663194Y-92697300D01*
X145629811Y-92711814D01*
X145563045Y-92726328D01*
X145512971Y-92726328D01*
X145446205Y-92711814D01*
X145412822Y-92697300D01*
X145379440Y-92668271D01*
X145362748Y-92624728D01*
X145362748Y-92595700D01*
X145379440Y-92552157D01*
X145396131Y-92537642D01*
X145396131Y-92421528D02*
X145379440Y-92407014D01*
X145362748Y-92377985D01*
X145362748Y-92305414D01*
X145379440Y-92276385D01*
X145396131Y-92261871D01*
X145429514Y-92247357D01*
X145462897Y-92247357D01*
X145512971Y-92261871D01*
X145713268Y-92436042D01*
X145713268Y-92247357D01*
X145713268Y-92102214D02*
X145713268Y-92044157D01*
X145696577Y-92015128D01*
X145679885Y-92000614D01*
X145629811Y-91971585D01*
X145563045Y-91957071D01*
X145429514Y-91957071D01*
X145396131Y-91971585D01*
X145379440Y-91986100D01*
X145362748Y-92015128D01*
X145362748Y-92073185D01*
X145379440Y-92102214D01*
X145396131Y-92116728D01*
X145429514Y-92131242D01*
X145512971Y-92131242D01*
X145546354Y-92116728D01*
X145563045Y-92102214D01*
X145579737Y-92073185D01*
X145579737Y-92015128D01*
X145563045Y-91986100D01*
X145546354Y-91971585D01*
X145512971Y-91957071D01*
X152042585Y-103929542D02*
X152059277Y-103944057D01*
X152075968Y-103987600D01*
X152075968Y-104016628D01*
X152059277Y-104060171D01*
X152025894Y-104089200D01*
X151992511Y-104103714D01*
X151925745Y-104118228D01*
X151875671Y-104118228D01*
X151808905Y-104103714D01*
X151775522Y-104089200D01*
X151742140Y-104060171D01*
X151725448Y-104016628D01*
X151725448Y-103987600D01*
X151742140Y-103944057D01*
X151758831Y-103929542D01*
X151725448Y-103827942D02*
X151725448Y-103639257D01*
X151858980Y-103740857D01*
X151858980Y-103697314D01*
X151875671Y-103668285D01*
X151892362Y-103653771D01*
X151925745Y-103639257D01*
X152009202Y-103639257D01*
X152042585Y-103653771D01*
X152059277Y-103668285D01*
X152075968Y-103697314D01*
X152075968Y-103784400D01*
X152059277Y-103813428D01*
X152042585Y-103827942D01*
X151725448Y-103450571D02*
X151725448Y-103421542D01*
X151742140Y-103392514D01*
X151758831Y-103378000D01*
X151792214Y-103363485D01*
X151858980Y-103348971D01*
X151942437Y-103348971D01*
X152009202Y-103363485D01*
X152042585Y-103378000D01*
X152059277Y-103392514D01*
X152075968Y-103421542D01*
X152075968Y-103450571D01*
X152059277Y-103479600D01*
X152042585Y-103494114D01*
X152009202Y-103508628D01*
X151942437Y-103523142D01*
X151858980Y-103523142D01*
X151792214Y-103508628D01*
X151758831Y-103494114D01*
X151742140Y-103479600D01*
X151725448Y-103450571D01*
X176650468Y-83705700D02*
X176483554Y-83807300D01*
X176650468Y-83879871D02*
X176299948Y-83879871D01*
X176299948Y-83763757D01*
X176316640Y-83734728D01*
X176333331Y-83720214D01*
X176366714Y-83705700D01*
X176416788Y-83705700D01*
X176450171Y-83720214D01*
X176466862Y-83734728D01*
X176483554Y-83763757D01*
X176483554Y-83879871D01*
X176416788Y-83444442D02*
X176650468Y-83444442D01*
X176283257Y-83517014D02*
X176533628Y-83589585D01*
X176533628Y-83400900D01*
X176612368Y-85559900D02*
X176445454Y-85661500D01*
X176612368Y-85734071D02*
X176261848Y-85734071D01*
X176261848Y-85617957D01*
X176278540Y-85588928D01*
X176295231Y-85574414D01*
X176328614Y-85559900D01*
X176378688Y-85559900D01*
X176412071Y-85574414D01*
X176428762Y-85588928D01*
X176445454Y-85617957D01*
X176445454Y-85734071D01*
X176261848Y-85284128D02*
X176261848Y-85429271D01*
X176428762Y-85443785D01*
X176412071Y-85429271D01*
X176395380Y-85400242D01*
X176395380Y-85327671D01*
X176412071Y-85298642D01*
X176428762Y-85284128D01*
X176462145Y-85269614D01*
X176545602Y-85269614D01*
X176578985Y-85284128D01*
X176595677Y-85298642D01*
X176612368Y-85327671D01*
X176612368Y-85400242D01*
X176595677Y-85429271D01*
X176578985Y-85443785D01*
X141287500Y-94710068D02*
X141185900Y-94543154D01*
X141113328Y-94710068D02*
X141113328Y-94359548D01*
X141229442Y-94359548D01*
X141258471Y-94376240D01*
X141272985Y-94392931D01*
X141287500Y-94426314D01*
X141287500Y-94476388D01*
X141272985Y-94509771D01*
X141258471Y-94526462D01*
X141229442Y-94543154D01*
X141113328Y-94543154D01*
X141548757Y-94359548D02*
X141490700Y-94359548D01*
X141461671Y-94376240D01*
X141447157Y-94392931D01*
X141418128Y-94443005D01*
X141403614Y-94509771D01*
X141403614Y-94643302D01*
X141418128Y-94676685D01*
X141432642Y-94693377D01*
X141461671Y-94710068D01*
X141519728Y-94710068D01*
X141548757Y-94693377D01*
X141563271Y-94676685D01*
X141577785Y-94643302D01*
X141577785Y-94559845D01*
X141563271Y-94526462D01*
X141548757Y-94509771D01*
X141519728Y-94493080D01*
X141461671Y-94493080D01*
X141432642Y-94509771D01*
X141418128Y-94526462D01*
X141403614Y-94559845D01*
X143414568Y-95123000D02*
X143247654Y-95224600D01*
X143414568Y-95297171D02*
X143064048Y-95297171D01*
X143064048Y-95181057D01*
X143080740Y-95152028D01*
X143097431Y-95137514D01*
X143130814Y-95123000D01*
X143180888Y-95123000D01*
X143214271Y-95137514D01*
X143230962Y-95152028D01*
X143247654Y-95181057D01*
X143247654Y-95297171D01*
X143214271Y-94948828D02*
X143197580Y-94977857D01*
X143180888Y-94992371D01*
X143147505Y-95006885D01*
X143130814Y-95006885D01*
X143097431Y-94992371D01*
X143080740Y-94977857D01*
X143064048Y-94948828D01*
X143064048Y-94890771D01*
X143080740Y-94861742D01*
X143097431Y-94847228D01*
X143130814Y-94832714D01*
X143147505Y-94832714D01*
X143180888Y-94847228D01*
X143197580Y-94861742D01*
X143214271Y-94890771D01*
X143214271Y-94948828D01*
X143230962Y-94977857D01*
X143247654Y-94992371D01*
X143281037Y-95006885D01*
X143347802Y-95006885D01*
X143381185Y-94992371D01*
X143397877Y-94977857D01*
X143414568Y-94948828D01*
X143414568Y-94890771D01*
X143397877Y-94861742D01*
X143381185Y-94847228D01*
X143347802Y-94832714D01*
X143281037Y-94832714D01*
X143247654Y-94847228D01*
X143230962Y-94861742D01*
X143214271Y-94890771D01*
X140093700Y-100869568D02*
X139992100Y-100702654D01*
X139919528Y-100869568D02*
X139919528Y-100519048D01*
X140035642Y-100519048D01*
X140064671Y-100535740D01*
X140079185Y-100552431D01*
X140093700Y-100585814D01*
X140093700Y-100635888D01*
X140079185Y-100669271D01*
X140064671Y-100685962D01*
X140035642Y-100702654D01*
X139919528Y-100702654D01*
X140238842Y-100869568D02*
X140296900Y-100869568D01*
X140325928Y-100852877D01*
X140340442Y-100836185D01*
X140369471Y-100786111D01*
X140383985Y-100719345D01*
X140383985Y-100585814D01*
X140369471Y-100552431D01*
X140354957Y-100535740D01*
X140325928Y-100519048D01*
X140267871Y-100519048D01*
X140238842Y-100535740D01*
X140224328Y-100552431D01*
X140209814Y-100585814D01*
X140209814Y-100669271D01*
X140224328Y-100702654D01*
X140238842Y-100719345D01*
X140267871Y-100736037D01*
X140325928Y-100736037D01*
X140354957Y-100719345D01*
X140369471Y-100702654D01*
X140383985Y-100669271D01*
X139923157Y-99764668D02*
X139821557Y-99597754D01*
X139748985Y-99764668D02*
X139748985Y-99414148D01*
X139865100Y-99414148D01*
X139894128Y-99430840D01*
X139908642Y-99447531D01*
X139923157Y-99480914D01*
X139923157Y-99530988D01*
X139908642Y-99564371D01*
X139894128Y-99581062D01*
X139865100Y-99597754D01*
X139748985Y-99597754D01*
X140213442Y-99764668D02*
X140039271Y-99764668D01*
X140126357Y-99764668D02*
X140126357Y-99414148D01*
X140097328Y-99464222D01*
X140068300Y-99497605D01*
X140039271Y-99514297D01*
X140402128Y-99414148D02*
X140431157Y-99414148D01*
X140460185Y-99430840D01*
X140474700Y-99447531D01*
X140489214Y-99480914D01*
X140503728Y-99547680D01*
X140503728Y-99631137D01*
X140489214Y-99697902D01*
X140474700Y-99731285D01*
X140460185Y-99747977D01*
X140431157Y-99764668D01*
X140402128Y-99764668D01*
X140373100Y-99747977D01*
X140358585Y-99731285D01*
X140344071Y-99697902D01*
X140329557Y-99631137D01*
X140329557Y-99547680D01*
X140344071Y-99480914D01*
X140358585Y-99447531D01*
X140373100Y-99430840D01*
X140402128Y-99414148D01*
X143085457Y-96780168D02*
X142983857Y-96613254D01*
X142911285Y-96780168D02*
X142911285Y-96429648D01*
X143027400Y-96429648D01*
X143056428Y-96446340D01*
X143070942Y-96463031D01*
X143085457Y-96496414D01*
X143085457Y-96546488D01*
X143070942Y-96579871D01*
X143056428Y-96596562D01*
X143027400Y-96613254D01*
X142911285Y-96613254D01*
X143375742Y-96780168D02*
X143201571Y-96780168D01*
X143288657Y-96780168D02*
X143288657Y-96429648D01*
X143259628Y-96479722D01*
X143230600Y-96513105D01*
X143201571Y-96529797D01*
X143666028Y-96780168D02*
X143491857Y-96780168D01*
X143578942Y-96780168D02*
X143578942Y-96429648D01*
X143549914Y-96479722D01*
X143520885Y-96513105D01*
X143491857Y-96529797D01*
X142983857Y-103536568D02*
X142882257Y-103369654D01*
X142809685Y-103536568D02*
X142809685Y-103186048D01*
X142925800Y-103186048D01*
X142954828Y-103202740D01*
X142969342Y-103219431D01*
X142983857Y-103252814D01*
X142983857Y-103302888D01*
X142969342Y-103336271D01*
X142954828Y-103352962D01*
X142925800Y-103369654D01*
X142809685Y-103369654D01*
X143274142Y-103536568D02*
X143099971Y-103536568D01*
X143187057Y-103536568D02*
X143187057Y-103186048D01*
X143158028Y-103236122D01*
X143129000Y-103269505D01*
X143099971Y-103286197D01*
X143390257Y-103219431D02*
X143404771Y-103202740D01*
X143433800Y-103186048D01*
X143506371Y-103186048D01*
X143535400Y-103202740D01*
X143549914Y-103219431D01*
X143564428Y-103252814D01*
X143564428Y-103286197D01*
X143549914Y-103336271D01*
X143375742Y-103536568D01*
X143564428Y-103536568D01*
X146793857Y-92932068D02*
X146692257Y-92765154D01*
X146619685Y-92932068D02*
X146619685Y-92581548D01*
X146735800Y-92581548D01*
X146764828Y-92598240D01*
X146779342Y-92614931D01*
X146793857Y-92648314D01*
X146793857Y-92698388D01*
X146779342Y-92731771D01*
X146764828Y-92748462D01*
X146735800Y-92765154D01*
X146619685Y-92765154D01*
X147084142Y-92932068D02*
X146909971Y-92932068D01*
X146997057Y-92932068D02*
X146997057Y-92581548D01*
X146968028Y-92631622D01*
X146939000Y-92665005D01*
X146909971Y-92681697D01*
X147185742Y-92581548D02*
X147374428Y-92581548D01*
X147272828Y-92715080D01*
X147316371Y-92715080D01*
X147345400Y-92731771D01*
X147359914Y-92748462D01*
X147374428Y-92781845D01*
X147374428Y-92865302D01*
X147359914Y-92898685D01*
X147345400Y-92915377D01*
X147316371Y-92932068D01*
X147229285Y-92932068D01*
X147200257Y-92915377D01*
X147185742Y-92898685D01*
X143085457Y-97758068D02*
X142983857Y-97591154D01*
X142911285Y-97758068D02*
X142911285Y-97407548D01*
X143027400Y-97407548D01*
X143056428Y-97424240D01*
X143070942Y-97440931D01*
X143085457Y-97474314D01*
X143085457Y-97524388D01*
X143070942Y-97557771D01*
X143056428Y-97574462D01*
X143027400Y-97591154D01*
X142911285Y-97591154D01*
X143375742Y-97758068D02*
X143201571Y-97758068D01*
X143288657Y-97758068D02*
X143288657Y-97407548D01*
X143259628Y-97457622D01*
X143230600Y-97491005D01*
X143201571Y-97507697D01*
X143651514Y-97407548D02*
X143506371Y-97407548D01*
X143491857Y-97574462D01*
X143506371Y-97557771D01*
X143535400Y-97541080D01*
X143607971Y-97541080D01*
X143637000Y-97557771D01*
X143651514Y-97574462D01*
X143666028Y-97607845D01*
X143666028Y-97691302D01*
X143651514Y-97724685D01*
X143637000Y-97741377D01*
X143607971Y-97758068D01*
X143535400Y-97758068D01*
X143506371Y-97741377D01*
X143491857Y-97724685D01*
X146781157Y-96195968D02*
X146679557Y-96029054D01*
X146606985Y-96195968D02*
X146606985Y-95845448D01*
X146723100Y-95845448D01*
X146752128Y-95862140D01*
X146766642Y-95878831D01*
X146781157Y-95912214D01*
X146781157Y-95962288D01*
X146766642Y-95995671D01*
X146752128Y-96012362D01*
X146723100Y-96029054D01*
X146606985Y-96029054D01*
X147071442Y-96195968D02*
X146897271Y-96195968D01*
X146984357Y-96195968D02*
X146984357Y-95845448D01*
X146955328Y-95895522D01*
X146926300Y-95928905D01*
X146897271Y-95945597D01*
X147173042Y-95845448D02*
X147376242Y-95845448D01*
X147245614Y-96195968D01*
X146235057Y-100044068D02*
X146133457Y-99877154D01*
X146060885Y-100044068D02*
X146060885Y-99693548D01*
X146177000Y-99693548D01*
X146206028Y-99710240D01*
X146220542Y-99726931D01*
X146235057Y-99760314D01*
X146235057Y-99810388D01*
X146220542Y-99843771D01*
X146206028Y-99860462D01*
X146177000Y-99877154D01*
X146060885Y-99877154D01*
X146525342Y-100044068D02*
X146351171Y-100044068D01*
X146438257Y-100044068D02*
X146438257Y-99693548D01*
X146409228Y-99743622D01*
X146380200Y-99777005D01*
X146351171Y-99793697D01*
X146699514Y-99843771D02*
X146670485Y-99827080D01*
X146655971Y-99810388D01*
X146641457Y-99777005D01*
X146641457Y-99760314D01*
X146655971Y-99726931D01*
X146670485Y-99710240D01*
X146699514Y-99693548D01*
X146757571Y-99693548D01*
X146786600Y-99710240D01*
X146801114Y-99726931D01*
X146815628Y-99760314D01*
X146815628Y-99777005D01*
X146801114Y-99810388D01*
X146786600Y-99827080D01*
X146757571Y-99843771D01*
X146699514Y-99843771D01*
X146670485Y-99860462D01*
X146655971Y-99877154D01*
X146641457Y-99910537D01*
X146641457Y-99977302D01*
X146655971Y-100010685D01*
X146670485Y-100027377D01*
X146699514Y-100044068D01*
X146757571Y-100044068D01*
X146786600Y-100027377D01*
X146801114Y-100010685D01*
X146815628Y-99977302D01*
X146815628Y-99910537D01*
X146801114Y-99877154D01*
X146786600Y-99860462D01*
X146757571Y-99843771D01*
D10*
X151058676Y-100338280D02*
X151725342Y-101338280D01*
X151725342Y-100338280D02*
X151058676Y-101338280D01*
X152630104Y-101338280D02*
X152058676Y-101338280D01*
X152344390Y-101338280D02*
X152344390Y-100338280D01*
X152249152Y-100481138D01*
X152153914Y-100576376D01*
X152058676Y-100623995D01*
X163934876Y-83094580D02*
X164601542Y-84094580D01*
X164601542Y-83094580D02*
X163934876Y-84094580D01*
X164934876Y-83189819D02*
X164982495Y-83142200D01*
X165077733Y-83094580D01*
X165315828Y-83094580D01*
X165411066Y-83142200D01*
X165458685Y-83189819D01*
X165506304Y-83285057D01*
X165506304Y-83380295D01*
X165458685Y-83523152D01*
X164887257Y-84094580D01*
X165506304Y-84094580D01*
D12*
X146645085Y-103904142D02*
X146661777Y-103918657D01*
X146678468Y-103962200D01*
X146678468Y-103991228D01*
X146661777Y-104034771D01*
X146628394Y-104063800D01*
X146595011Y-104078314D01*
X146528245Y-104092828D01*
X146478171Y-104092828D01*
X146411405Y-104078314D01*
X146378022Y-104063800D01*
X146344640Y-104034771D01*
X146327948Y-103991228D01*
X146327948Y-103962200D01*
X146344640Y-103918657D01*
X146361331Y-103904142D01*
X146327948Y-103802542D02*
X146327948Y-103613857D01*
X146461480Y-103715457D01*
X146461480Y-103671914D01*
X146478171Y-103642885D01*
X146494862Y-103628371D01*
X146528245Y-103613857D01*
X146611702Y-103613857D01*
X146645085Y-103628371D01*
X146661777Y-103642885D01*
X146678468Y-103671914D01*
X146678468Y-103759000D01*
X146661777Y-103788028D01*
X146645085Y-103802542D01*
X146361331Y-103497742D02*
X146344640Y-103483228D01*
X146327948Y-103454200D01*
X146327948Y-103381628D01*
X146344640Y-103352600D01*
X146361331Y-103338085D01*
X146394714Y-103323571D01*
X146428097Y-103323571D01*
X146478171Y-103338085D01*
X146678468Y-103512257D01*
X146678468Y-103323571D01*
X146844657Y-97432585D02*
X146830142Y-97449277D01*
X146786600Y-97465968D01*
X146757571Y-97465968D01*
X146714028Y-97449277D01*
X146685000Y-97415894D01*
X146670485Y-97382511D01*
X146655971Y-97315745D01*
X146655971Y-97265671D01*
X146670485Y-97198905D01*
X146685000Y-97165522D01*
X146714028Y-97132140D01*
X146757571Y-97115448D01*
X146786600Y-97115448D01*
X146830142Y-97132140D01*
X146844657Y-97148831D01*
X146946257Y-97115448D02*
X147134942Y-97115448D01*
X147033342Y-97248980D01*
X147076885Y-97248980D01*
X147105914Y-97265671D01*
X147120428Y-97282362D01*
X147134942Y-97315745D01*
X147134942Y-97399202D01*
X147120428Y-97432585D01*
X147105914Y-97449277D01*
X147076885Y-97465968D01*
X146989800Y-97465968D01*
X146960771Y-97449277D01*
X146946257Y-97432585D01*
X147396200Y-97232288D02*
X147396200Y-97465968D01*
X147323628Y-97098757D02*
X147251057Y-97349128D01*
X147439742Y-97349128D01*
D21*
X175947674Y-85707643D02*
X175947674Y-85803195D01*
X175747014Y-85803195D01*
X175947674Y-85535649D02*
X175947674Y-85650311D01*
X175947674Y-85592980D02*
X175747014Y-85592980D01*
X175775680Y-85612090D01*
X175794790Y-85631201D01*
X175804346Y-85650311D01*
D12*
X168438285Y-84663642D02*
X168454977Y-84678157D01*
X168471668Y-84721700D01*
X168471668Y-84750728D01*
X168454977Y-84794271D01*
X168421594Y-84823300D01*
X168388211Y-84837814D01*
X168321445Y-84852328D01*
X168271371Y-84852328D01*
X168204605Y-84837814D01*
X168171222Y-84823300D01*
X168137840Y-84794271D01*
X168121148Y-84750728D01*
X168121148Y-84721700D01*
X168137840Y-84678157D01*
X168154531Y-84663642D01*
X168121148Y-84562042D02*
X168121148Y-84373357D01*
X168254680Y-84474957D01*
X168254680Y-84431414D01*
X168271371Y-84402385D01*
X168288062Y-84387871D01*
X168321445Y-84373357D01*
X168404902Y-84373357D01*
X168438285Y-84387871D01*
X168454977Y-84402385D01*
X168471668Y-84431414D01*
X168471668Y-84518500D01*
X168454977Y-84547528D01*
X168438285Y-84562042D01*
X168121148Y-84097585D02*
X168121148Y-84242728D01*
X168288062Y-84257242D01*
X168271371Y-84242728D01*
X168254680Y-84213700D01*
X168254680Y-84141128D01*
X168271371Y-84112100D01*
X168288062Y-84097585D01*
X168321445Y-84083071D01*
X168404902Y-84083071D01*
X168438285Y-84097585D01*
X168454977Y-84112100D01*
X168471668Y-84141128D01*
X168471668Y-84213700D01*
X168454977Y-84242728D01*
X168438285Y-84257242D01*
X142301685Y-100043342D02*
X142318377Y-100057857D01*
X142335068Y-100101400D01*
X142335068Y-100130428D01*
X142318377Y-100173971D01*
X142284994Y-100203000D01*
X142251611Y-100217514D01*
X142184845Y-100232028D01*
X142134771Y-100232028D01*
X142068005Y-100217514D01*
X142034622Y-100203000D01*
X142001240Y-100173971D01*
X141984548Y-100130428D01*
X141984548Y-100101400D01*
X142001240Y-100057857D01*
X142017931Y-100043342D01*
X141984548Y-99941742D02*
X141984548Y-99753057D01*
X142118080Y-99854657D01*
X142118080Y-99811114D01*
X142134771Y-99782085D01*
X142151462Y-99767571D01*
X142184845Y-99753057D01*
X142268302Y-99753057D01*
X142301685Y-99767571D01*
X142318377Y-99782085D01*
X142335068Y-99811114D01*
X142335068Y-99898200D01*
X142318377Y-99927228D01*
X142301685Y-99941742D01*
X141984548Y-99491800D02*
X141984548Y-99549857D01*
X142001240Y-99578885D01*
X142017931Y-99593400D01*
X142068005Y-99622428D01*
X142134771Y-99636942D01*
X142268302Y-99636942D01*
X142301685Y-99622428D01*
X142318377Y-99607914D01*
X142335068Y-99578885D01*
X142335068Y-99520828D01*
X142318377Y-99491800D01*
X142301685Y-99477285D01*
X142268302Y-99462771D01*
X142184845Y-99462771D01*
X142151462Y-99477285D01*
X142134771Y-99491800D01*
X142118080Y-99520828D01*
X142118080Y-99578885D01*
X142134771Y-99607914D01*
X142151462Y-99622428D01*
X142184845Y-99636942D01*
X147098657Y-99108985D02*
X147084142Y-99125677D01*
X147040600Y-99142368D01*
X147011571Y-99142368D01*
X146968028Y-99125677D01*
X146939000Y-99092294D01*
X146924485Y-99058911D01*
X146909971Y-98992145D01*
X146909971Y-98942071D01*
X146924485Y-98875305D01*
X146939000Y-98841922D01*
X146968028Y-98808540D01*
X147011571Y-98791848D01*
X147040600Y-98791848D01*
X147084142Y-98808540D01*
X147098657Y-98825231D01*
X147200257Y-98791848D02*
X147388942Y-98791848D01*
X147287342Y-98925380D01*
X147330885Y-98925380D01*
X147359914Y-98942071D01*
X147374428Y-98958762D01*
X147388942Y-98992145D01*
X147388942Y-99075602D01*
X147374428Y-99108985D01*
X147359914Y-99125677D01*
X147330885Y-99142368D01*
X147243800Y-99142368D01*
X147214771Y-99125677D01*
X147200257Y-99108985D01*
X147490542Y-98791848D02*
X147693742Y-98791848D01*
X147563114Y-99142368D01*
D21*
X146499156Y-94769274D02*
X146403604Y-94769274D01*
X146403604Y-94568614D01*
X146546932Y-94568614D02*
X146671150Y-94568614D01*
X146604264Y-94645056D01*
X146632930Y-94645056D01*
X146652040Y-94654611D01*
X146661595Y-94664167D01*
X146671150Y-94683277D01*
X146671150Y-94731053D01*
X146661595Y-94750164D01*
X146652040Y-94759719D01*
X146632930Y-94769274D01*
X146575598Y-94769274D01*
X146556488Y-94759719D01*
X146546932Y-94750164D01*
D22*
X146676533Y-92774709D02*
X146712819Y-92786804D01*
X146773295Y-92786804D01*
X146797485Y-92774709D01*
X146809580Y-92762614D01*
X146821676Y-92738423D01*
X146821676Y-92714233D01*
X146809580Y-92690042D01*
X146797485Y-92677947D01*
X146773295Y-92665852D01*
X146724914Y-92653757D01*
X146700723Y-92641661D01*
X146688628Y-92629566D01*
X146676533Y-92605376D01*
X146676533Y-92581185D01*
X146688628Y-92556995D01*
X146700723Y-92544900D01*
X146724914Y-92532804D01*
X146785390Y-92532804D01*
X146821676Y-92544900D01*
X146906342Y-92532804D02*
X146966819Y-92786804D01*
X147015200Y-92605376D01*
X147063580Y-92786804D01*
X147124057Y-92532804D01*
X147353866Y-92786804D02*
X147208723Y-92786804D01*
X147281295Y-92786804D02*
X147281295Y-92532804D01*
X147257104Y-92569090D01*
X147232914Y-92593280D01*
X147208723Y-92605376D01*
D13*
X157199390Y-104643161D02*
X157199390Y-105157209D01*
X157229628Y-105217685D01*
X157259866Y-105247923D01*
X157320342Y-105278161D01*
X157441295Y-105278161D01*
X157501771Y-105247923D01*
X157532009Y-105217685D01*
X157562247Y-105157209D01*
X157562247Y-104643161D01*
X158136771Y-104643161D02*
X158015819Y-104643161D01*
X157955342Y-104673400D01*
X157925104Y-104703638D01*
X157864628Y-104794352D01*
X157834390Y-104915304D01*
X157834390Y-105157209D01*
X157864628Y-105217685D01*
X157894866Y-105247923D01*
X157955342Y-105278161D01*
X158076295Y-105278161D01*
X158136771Y-105247923D01*
X158167009Y-105217685D01*
X158197247Y-105157209D01*
X158197247Y-105006019D01*
X158167009Y-104945542D01*
X158136771Y-104915304D01*
X158076295Y-104885066D01*
X157955342Y-104885066D01*
X157894866Y-104915304D01*
X157864628Y-104945542D01*
X157834390Y-105006019D01*
X148435301Y-89465089D02*
X148949349Y-89465089D01*
X149009825Y-89434851D01*
X149040063Y-89404613D01*
X149070301Y-89344137D01*
X149070301Y-89223184D01*
X149040063Y-89162708D01*
X149009825Y-89132470D01*
X148949349Y-89102232D01*
X148435301Y-89102232D01*
X148435301Y-88860327D02*
X148435301Y-88436994D01*
X149070301Y-88709137D01*
D21*
X143235256Y-102147974D02*
X143139704Y-102147974D01*
X143139704Y-101947314D01*
X143388140Y-102014201D02*
X143388140Y-102147974D01*
X143340364Y-101937759D02*
X143292588Y-102081088D01*
X143416806Y-102081088D01*
D23*
X138125200Y-95355228D02*
X138103428Y-95379419D01*
X138038114Y-95403609D01*
X137994571Y-95403609D01*
X137929257Y-95379419D01*
X137885714Y-95331038D01*
X137863942Y-95282657D01*
X137842171Y-95185895D01*
X137842171Y-95113323D01*
X137863942Y-95016561D01*
X137885714Y-94968180D01*
X137929257Y-94919800D01*
X137994571Y-94895609D01*
X138038114Y-94895609D01*
X138103428Y-94919800D01*
X138125200Y-94943990D01*
X138560628Y-95403609D02*
X138299371Y-95403609D01*
X138430000Y-95403609D02*
X138430000Y-94895609D01*
X138386457Y-94968180D01*
X138342914Y-95016561D01*
X138299371Y-95040752D01*
X143691428Y-88265000D02*
X143715619Y-88286771D01*
X143739809Y-88352085D01*
X143739809Y-88395628D01*
X143715619Y-88460942D01*
X143667238Y-88504485D01*
X143618857Y-88526257D01*
X143522095Y-88548028D01*
X143449523Y-88548028D01*
X143352761Y-88526257D01*
X143304380Y-88504485D01*
X143256000Y-88460942D01*
X143231809Y-88395628D01*
X143231809Y-88352085D01*
X143256000Y-88286771D01*
X143280190Y-88265000D01*
X143231809Y-87851342D02*
X143231809Y-88069057D01*
X143473714Y-88090828D01*
X143449523Y-88069057D01*
X143425333Y-88025514D01*
X143425333Y-87916657D01*
X143449523Y-87873114D01*
X143473714Y-87851342D01*
X143522095Y-87829571D01*
X143643047Y-87829571D01*
X143691428Y-87851342D01*
X143715619Y-87873114D01*
X143739809Y-87916657D01*
X143739809Y-88025514D01*
X143715619Y-88069057D01*
X143691428Y-88090828D01*
X137401300Y-88675028D02*
X137379528Y-88699219D01*
X137314214Y-88723409D01*
X137270671Y-88723409D01*
X137205357Y-88699219D01*
X137161814Y-88650838D01*
X137140042Y-88602457D01*
X137118271Y-88505695D01*
X137118271Y-88433123D01*
X137140042Y-88336361D01*
X137161814Y-88287980D01*
X137205357Y-88239600D01*
X137270671Y-88215409D01*
X137314214Y-88215409D01*
X137379528Y-88239600D01*
X137401300Y-88263790D01*
X137553700Y-88215409D02*
X137858500Y-88215409D01*
X137662557Y-88723409D01*
X174742928Y-83388200D02*
X174767119Y-83409971D01*
X174791309Y-83475285D01*
X174791309Y-83518828D01*
X174767119Y-83584142D01*
X174718738Y-83627685D01*
X174670357Y-83649457D01*
X174573595Y-83671228D01*
X174501023Y-83671228D01*
X174404261Y-83649457D01*
X174355880Y-83627685D01*
X174307500Y-83584142D01*
X174283309Y-83518828D01*
X174283309Y-83475285D01*
X174307500Y-83409971D01*
X174331690Y-83388200D01*
X174791309Y-83170485D02*
X174791309Y-83083400D01*
X174767119Y-83039857D01*
X174742928Y-83018085D01*
X174670357Y-82974542D01*
X174573595Y-82952771D01*
X174380071Y-82952771D01*
X174331690Y-82974542D01*
X174307500Y-82996314D01*
X174283309Y-83039857D01*
X174283309Y-83126942D01*
X174307500Y-83170485D01*
X174331690Y-83192257D01*
X174380071Y-83214028D01*
X174501023Y-83214028D01*
X174549404Y-83192257D01*
X174573595Y-83170485D01*
X174597785Y-83126942D01*
X174597785Y-83039857D01*
X174573595Y-82996314D01*
X174549404Y-82974542D01*
X174501023Y-82952771D01*
X140612585Y-89195728D02*
X140590814Y-89219919D01*
X140525500Y-89244109D01*
X140481957Y-89244109D01*
X140416642Y-89219919D01*
X140373100Y-89171538D01*
X140351328Y-89123157D01*
X140329557Y-89026395D01*
X140329557Y-88953823D01*
X140351328Y-88857061D01*
X140373100Y-88808680D01*
X140416642Y-88760300D01*
X140481957Y-88736109D01*
X140525500Y-88736109D01*
X140590814Y-88760300D01*
X140612585Y-88784490D01*
X141048014Y-89244109D02*
X140786757Y-89244109D01*
X140917385Y-89244109D02*
X140917385Y-88736109D01*
X140873842Y-88808680D01*
X140830300Y-88857061D01*
X140786757Y-88881252D01*
X141483442Y-89244109D02*
X141222185Y-89244109D01*
X141352814Y-89244109D02*
X141352814Y-88736109D01*
X141309271Y-88808680D01*
X141265728Y-88857061D01*
X141222185Y-88881252D01*
X154074585Y-103788028D02*
X154052814Y-103812219D01*
X153987500Y-103836409D01*
X153943957Y-103836409D01*
X153878642Y-103812219D01*
X153835100Y-103763838D01*
X153813328Y-103715457D01*
X153791557Y-103618695D01*
X153791557Y-103546123D01*
X153813328Y-103449361D01*
X153835100Y-103400980D01*
X153878642Y-103352600D01*
X153943957Y-103328409D01*
X153987500Y-103328409D01*
X154052814Y-103352600D01*
X154074585Y-103376790D01*
X154248757Y-103376790D02*
X154270528Y-103352600D01*
X154314071Y-103328409D01*
X154422928Y-103328409D01*
X154466471Y-103352600D01*
X154488242Y-103376790D01*
X154510014Y-103425171D01*
X154510014Y-103473552D01*
X154488242Y-103546123D01*
X154226985Y-103836409D01*
X154510014Y-103836409D01*
X154684185Y-103376790D02*
X154705957Y-103352600D01*
X154749500Y-103328409D01*
X154858357Y-103328409D01*
X154901900Y-103352600D01*
X154923671Y-103376790D01*
X154945442Y-103425171D01*
X154945442Y-103473552D01*
X154923671Y-103546123D01*
X154662414Y-103836409D01*
X154945442Y-103836409D01*
X160399185Y-103648328D02*
X160377414Y-103672519D01*
X160312100Y-103696709D01*
X160268557Y-103696709D01*
X160203242Y-103672519D01*
X160159700Y-103624138D01*
X160137928Y-103575757D01*
X160116157Y-103478995D01*
X160116157Y-103406423D01*
X160137928Y-103309661D01*
X160159700Y-103261280D01*
X160203242Y-103212900D01*
X160268557Y-103188709D01*
X160312100Y-103188709D01*
X160377414Y-103212900D01*
X160399185Y-103237090D01*
X160573357Y-103237090D02*
X160595128Y-103212900D01*
X160638671Y-103188709D01*
X160747528Y-103188709D01*
X160791071Y-103212900D01*
X160812842Y-103237090D01*
X160834614Y-103285471D01*
X160834614Y-103333852D01*
X160812842Y-103406423D01*
X160551585Y-103696709D01*
X160834614Y-103696709D01*
X160987014Y-103188709D02*
X161270042Y-103188709D01*
X161117642Y-103382233D01*
X161182957Y-103382233D01*
X161226500Y-103406423D01*
X161248271Y-103430614D01*
X161270042Y-103478995D01*
X161270042Y-103599947D01*
X161248271Y-103648328D01*
X161226500Y-103672519D01*
X161182957Y-103696709D01*
X161052328Y-103696709D01*
X161008785Y-103672519D01*
X160987014Y-103648328D01*
D12*
X144406257Y-86993185D02*
X144391742Y-87009877D01*
X144348200Y-87026568D01*
X144319171Y-87026568D01*
X144275628Y-87009877D01*
X144246600Y-86976494D01*
X144232085Y-86943111D01*
X144217571Y-86876345D01*
X144217571Y-86826271D01*
X144232085Y-86759505D01*
X144246600Y-86726122D01*
X144275628Y-86692740D01*
X144319171Y-86676048D01*
X144348200Y-86676048D01*
X144391742Y-86692740D01*
X144406257Y-86709431D01*
X144507857Y-86676048D02*
X144696542Y-86676048D01*
X144594942Y-86809580D01*
X144638485Y-86809580D01*
X144667514Y-86826271D01*
X144682028Y-86842962D01*
X144696542Y-86876345D01*
X144696542Y-86959802D01*
X144682028Y-86993185D01*
X144667514Y-87009877D01*
X144638485Y-87026568D01*
X144551400Y-87026568D01*
X144522371Y-87009877D01*
X144507857Y-86993185D01*
X144986828Y-87026568D02*
X144812657Y-87026568D01*
X144899742Y-87026568D02*
X144899742Y-86676048D01*
X144870714Y-86726122D01*
X144841685Y-86759505D01*
X144812657Y-86776197D01*
X161173885Y-84346142D02*
X161190577Y-84360657D01*
X161207268Y-84404200D01*
X161207268Y-84433228D01*
X161190577Y-84476771D01*
X161157194Y-84505800D01*
X161123811Y-84520314D01*
X161057045Y-84534828D01*
X161006971Y-84534828D01*
X160940205Y-84520314D01*
X160906822Y-84505800D01*
X160873440Y-84476771D01*
X160856748Y-84433228D01*
X160856748Y-84404200D01*
X160873440Y-84360657D01*
X160890131Y-84346142D01*
X160856748Y-84244542D02*
X160856748Y-84055857D01*
X160990280Y-84157457D01*
X160990280Y-84113914D01*
X161006971Y-84084885D01*
X161023662Y-84070371D01*
X161057045Y-84055857D01*
X161140502Y-84055857D01*
X161173885Y-84070371D01*
X161190577Y-84084885D01*
X161207268Y-84113914D01*
X161207268Y-84201000D01*
X161190577Y-84230028D01*
X161173885Y-84244542D01*
X160856748Y-83954257D02*
X160856748Y-83765571D01*
X160990280Y-83867171D01*
X160990280Y-83823628D01*
X161006971Y-83794600D01*
X161023662Y-83780085D01*
X161057045Y-83765571D01*
X161140502Y-83765571D01*
X161173885Y-83780085D01*
X161190577Y-83794600D01*
X161207268Y-83823628D01*
X161207268Y-83910714D01*
X161190577Y-83939742D01*
X161173885Y-83954257D01*
D23*
X144816285Y-97082428D02*
X144794514Y-97106619D01*
X144729200Y-97130809D01*
X144685657Y-97130809D01*
X144620342Y-97106619D01*
X144576800Y-97058238D01*
X144555028Y-97009857D01*
X144533257Y-96913095D01*
X144533257Y-96840523D01*
X144555028Y-96743761D01*
X144576800Y-96695380D01*
X144620342Y-96647000D01*
X144685657Y-96622809D01*
X144729200Y-96622809D01*
X144794514Y-96647000D01*
X144816285Y-96671190D01*
X144968685Y-96622809D02*
X145251714Y-96622809D01*
X145099314Y-96816333D01*
X145164628Y-96816333D01*
X145208171Y-96840523D01*
X145229942Y-96864714D01*
X145251714Y-96913095D01*
X145251714Y-97034047D01*
X145229942Y-97082428D01*
X145208171Y-97106619D01*
X145164628Y-97130809D01*
X145034000Y-97130809D01*
X144990457Y-97106619D01*
X144968685Y-97082428D01*
X145512971Y-96840523D02*
X145469428Y-96816333D01*
X145447657Y-96792142D01*
X145425885Y-96743761D01*
X145425885Y-96719571D01*
X145447657Y-96671190D01*
X145469428Y-96647000D01*
X145512971Y-96622809D01*
X145600057Y-96622809D01*
X145643600Y-96647000D01*
X145665371Y-96671190D01*
X145687142Y-96719571D01*
X145687142Y-96743761D01*
X145665371Y-96792142D01*
X145643600Y-96816333D01*
X145600057Y-96840523D01*
X145512971Y-96840523D01*
X145469428Y-96864714D01*
X145447657Y-96888904D01*
X145425885Y-96937285D01*
X145425885Y-97034047D01*
X145447657Y-97082428D01*
X145469428Y-97106619D01*
X145512971Y-97130809D01*
X145600057Y-97130809D01*
X145643600Y-97106619D01*
X145665371Y-97082428D01*
X145687142Y-97034047D01*
X145687142Y-96937285D01*
X145665371Y-96888904D01*
X145643600Y-96864714D01*
X145600057Y-96840523D01*
X144428028Y-99658714D02*
X144452219Y-99680485D01*
X144476409Y-99745800D01*
X144476409Y-99789342D01*
X144452219Y-99854657D01*
X144403838Y-99898200D01*
X144355457Y-99919971D01*
X144258695Y-99941742D01*
X144186123Y-99941742D01*
X144089361Y-99919971D01*
X144040980Y-99898200D01*
X143992600Y-99854657D01*
X143968409Y-99789342D01*
X143968409Y-99745800D01*
X143992600Y-99680485D01*
X144016790Y-99658714D01*
X143968409Y-99506314D02*
X143968409Y-99223285D01*
X144161933Y-99375685D01*
X144161933Y-99310371D01*
X144186123Y-99266828D01*
X144210314Y-99245057D01*
X144258695Y-99223285D01*
X144379647Y-99223285D01*
X144428028Y-99245057D01*
X144452219Y-99266828D01*
X144476409Y-99310371D01*
X144476409Y-99441000D01*
X144452219Y-99484542D01*
X144428028Y-99506314D01*
X144476409Y-99005571D02*
X144476409Y-98918485D01*
X144452219Y-98874942D01*
X144428028Y-98853171D01*
X144355457Y-98809628D01*
X144258695Y-98787857D01*
X144065171Y-98787857D01*
X144016790Y-98809628D01*
X143992600Y-98831400D01*
X143968409Y-98874942D01*
X143968409Y-98962028D01*
X143992600Y-99005571D01*
X144016790Y-99027342D01*
X144065171Y-99049114D01*
X144186123Y-99049114D01*
X144234504Y-99027342D01*
X144258695Y-99005571D01*
X144282885Y-98962028D01*
X144282885Y-98874942D01*
X144258695Y-98831400D01*
X144234504Y-98809628D01*
X144186123Y-98787857D01*
D12*
X144435285Y-94849042D02*
X144451977Y-94863557D01*
X144468668Y-94907100D01*
X144468668Y-94936128D01*
X144451977Y-94979671D01*
X144418594Y-95008700D01*
X144385211Y-95023214D01*
X144318445Y-95037728D01*
X144268371Y-95037728D01*
X144201605Y-95023214D01*
X144168222Y-95008700D01*
X144134840Y-94979671D01*
X144118148Y-94936128D01*
X144118148Y-94907100D01*
X144134840Y-94863557D01*
X144151531Y-94849042D01*
X144234988Y-94587785D02*
X144468668Y-94587785D01*
X144101457Y-94660357D02*
X144351828Y-94732928D01*
X144351828Y-94544242D01*
X144118148Y-94282985D02*
X144118148Y-94428128D01*
X144285062Y-94442642D01*
X144268371Y-94428128D01*
X144251680Y-94399100D01*
X144251680Y-94326528D01*
X144268371Y-94297500D01*
X144285062Y-94282985D01*
X144318445Y-94268471D01*
X144401902Y-94268471D01*
X144435285Y-94282985D01*
X144451977Y-94297500D01*
X144468668Y-94326528D01*
X144468668Y-94399100D01*
X144451977Y-94428128D01*
X144435285Y-94442642D01*
D10*
X136733180Y-92243266D02*
X136733180Y-92719457D01*
X135733180Y-92719457D01*
X135828419Y-91957552D02*
X135780800Y-91909933D01*
X135733180Y-91814695D01*
X135733180Y-91576600D01*
X135780800Y-91481361D01*
X135828419Y-91433742D01*
X135923657Y-91386123D01*
X136018895Y-91386123D01*
X136161752Y-91433742D01*
X136733180Y-92005171D01*
X136733180Y-91386123D01*
D24*
X134064828Y-99277714D02*
X134064828Y-99894571D01*
X134101114Y-99967142D01*
X134137400Y-100003428D01*
X134209971Y-100039714D01*
X134355114Y-100039714D01*
X134427685Y-100003428D01*
X134463971Y-99967142D01*
X134500257Y-99894571D01*
X134500257Y-99277714D01*
X135262257Y-100039714D02*
X134826828Y-100039714D01*
X135044542Y-100039714D02*
X135044542Y-99277714D01*
X134971971Y-99386571D01*
X134899400Y-99459142D01*
X134826828Y-99495428D01*
D10*
X170688095Y-90638380D02*
X170688095Y-91447904D01*
X170735714Y-91543142D01*
X170783333Y-91590761D01*
X170878571Y-91638380D01*
X171069047Y-91638380D01*
X171164285Y-91590761D01*
X171211904Y-91543142D01*
X171259523Y-91447904D01*
X171259523Y-90638380D01*
X171640476Y-90638380D02*
X172259523Y-90638380D01*
X171926190Y-91019333D01*
X172069047Y-91019333D01*
X172164285Y-91066952D01*
X172211904Y-91114571D01*
X172259523Y-91209809D01*
X172259523Y-91447904D01*
X172211904Y-91543142D01*
X172164285Y-91590761D01*
X172069047Y-91638380D01*
X171783333Y-91638380D01*
X171688095Y-91590761D01*
X171640476Y-91543142D01*
D25*
X155359195Y-84389480D02*
X155359195Y-85199004D01*
X155406814Y-85294242D01*
X155454433Y-85341861D01*
X155549671Y-85389480D01*
X155740147Y-85389480D01*
X155835385Y-85341861D01*
X155883004Y-85294242D01*
X155930623Y-85199004D01*
X155930623Y-84389480D01*
X156883004Y-84389480D02*
X156406814Y-84389480D01*
X156359195Y-84865671D01*
X156406814Y-84818052D01*
X156502052Y-84770433D01*
X156740147Y-84770433D01*
X156835385Y-84818052D01*
X156883004Y-84865671D01*
X156930623Y-84960909D01*
X156930623Y-85199004D01*
X156883004Y-85294242D01*
X156835385Y-85341861D01*
X156740147Y-85389480D01*
X156502052Y-85389480D01*
X156406814Y-85341861D01*
X156359195Y-85294242D01*
D23*
X170856728Y-82550000D02*
X170880919Y-82571771D01*
X170905109Y-82637085D01*
X170905109Y-82680628D01*
X170880919Y-82745942D01*
X170832538Y-82789485D01*
X170784157Y-82811257D01*
X170687395Y-82833028D01*
X170614823Y-82833028D01*
X170518061Y-82811257D01*
X170469680Y-82789485D01*
X170421300Y-82745942D01*
X170397109Y-82680628D01*
X170397109Y-82637085D01*
X170421300Y-82571771D01*
X170445490Y-82550000D01*
X170614823Y-82288742D02*
X170590633Y-82332285D01*
X170566442Y-82354057D01*
X170518061Y-82375828D01*
X170493871Y-82375828D01*
X170445490Y-82354057D01*
X170421300Y-82332285D01*
X170397109Y-82288742D01*
X170397109Y-82201657D01*
X170421300Y-82158114D01*
X170445490Y-82136342D01*
X170493871Y-82114571D01*
X170518061Y-82114571D01*
X170566442Y-82136342D01*
X170590633Y-82158114D01*
X170614823Y-82201657D01*
X170614823Y-82288742D01*
X170639014Y-82332285D01*
X170663204Y-82354057D01*
X170711585Y-82375828D01*
X170808347Y-82375828D01*
X170856728Y-82354057D01*
X170880919Y-82332285D01*
X170905109Y-82288742D01*
X170905109Y-82201657D01*
X170880919Y-82158114D01*
X170856728Y-82136342D01*
X170808347Y-82114571D01*
X170711585Y-82114571D01*
X170663204Y-82136342D01*
X170639014Y-82158114D01*
X170614823Y-82201657D01*
X169568585Y-85563528D02*
X169546814Y-85587719D01*
X169481500Y-85611909D01*
X169437957Y-85611909D01*
X169372642Y-85587719D01*
X169329100Y-85539338D01*
X169307328Y-85490957D01*
X169285557Y-85394195D01*
X169285557Y-85321623D01*
X169307328Y-85224861D01*
X169329100Y-85176480D01*
X169372642Y-85128100D01*
X169437957Y-85103909D01*
X169481500Y-85103909D01*
X169546814Y-85128100D01*
X169568585Y-85152290D01*
X169982242Y-85103909D02*
X169764528Y-85103909D01*
X169742757Y-85345814D01*
X169764528Y-85321623D01*
X169808071Y-85297433D01*
X169916928Y-85297433D01*
X169960471Y-85321623D01*
X169982242Y-85345814D01*
X170004014Y-85394195D01*
X170004014Y-85515147D01*
X169982242Y-85563528D01*
X169960471Y-85587719D01*
X169916928Y-85611909D01*
X169808071Y-85611909D01*
X169764528Y-85587719D01*
X169742757Y-85563528D01*
X170156414Y-85103909D02*
X170461214Y-85103909D01*
X170265271Y-85611909D01*
D14*
X172098788Y-86481194D02*
X172098788Y-87098051D01*
X172135074Y-87170622D01*
X172171360Y-87206908D01*
X172243931Y-87243194D01*
X172389074Y-87243194D01*
X172461645Y-87206908D01*
X172497931Y-87170622D01*
X172534217Y-87098051D01*
X172534217Y-86481194D01*
X172933360Y-87243194D02*
X173078502Y-87243194D01*
X173151074Y-87206908D01*
X173187360Y-87170622D01*
X173259931Y-87061765D01*
X173296217Y-86916622D01*
X173296217Y-86626337D01*
X173259931Y-86553765D01*
X173223645Y-86517480D01*
X173151074Y-86481194D01*
X173005931Y-86481194D01*
X172933360Y-86517480D01*
X172897074Y-86553765D01*
X172860788Y-86626337D01*
X172860788Y-86807765D01*
X172897074Y-86880337D01*
X172933360Y-86916622D01*
X173005931Y-86952908D01*
X173151074Y-86952908D01*
X173223645Y-86916622D01*
X173259931Y-86880337D01*
X173296217Y-86807765D01*
D12*
X167888557Y-86091485D02*
X167874042Y-86108177D01*
X167830500Y-86124868D01*
X167801471Y-86124868D01*
X167757928Y-86108177D01*
X167728900Y-86074794D01*
X167714385Y-86041411D01*
X167699871Y-85974645D01*
X167699871Y-85924571D01*
X167714385Y-85857805D01*
X167728900Y-85824422D01*
X167757928Y-85791040D01*
X167801471Y-85774348D01*
X167830500Y-85774348D01*
X167874042Y-85791040D01*
X167888557Y-85807731D01*
X168164328Y-85774348D02*
X168019185Y-85774348D01*
X168004671Y-85941262D01*
X168019185Y-85924571D01*
X168048214Y-85907880D01*
X168120785Y-85907880D01*
X168149814Y-85924571D01*
X168164328Y-85941262D01*
X168178842Y-85974645D01*
X168178842Y-86058102D01*
X168164328Y-86091485D01*
X168149814Y-86108177D01*
X168120785Y-86124868D01*
X168048214Y-86124868D01*
X168019185Y-86108177D01*
X168004671Y-86091485D01*
X168353014Y-85924571D02*
X168323985Y-85907880D01*
X168309471Y-85891188D01*
X168294957Y-85857805D01*
X168294957Y-85841114D01*
X168309471Y-85807731D01*
X168323985Y-85791040D01*
X168353014Y-85774348D01*
X168411071Y-85774348D01*
X168440100Y-85791040D01*
X168454614Y-85807731D01*
X168469128Y-85841114D01*
X168469128Y-85857805D01*
X168454614Y-85891188D01*
X168440100Y-85907880D01*
X168411071Y-85924571D01*
X168353014Y-85924571D01*
X168323985Y-85941262D01*
X168309471Y-85957954D01*
X168294957Y-85991337D01*
X168294957Y-86058102D01*
X168309471Y-86091485D01*
X168323985Y-86108177D01*
X168353014Y-86124868D01*
X168411071Y-86124868D01*
X168440100Y-86108177D01*
X168454614Y-86091485D01*
X168469128Y-86058102D01*
X168469128Y-85991337D01*
X168454614Y-85957954D01*
X168440100Y-85941262D01*
X168411071Y-85924571D01*
D23*
X141249400Y-86198528D02*
X141227628Y-86222719D01*
X141162314Y-86246909D01*
X141118771Y-86246909D01*
X141053457Y-86222719D01*
X141009914Y-86174338D01*
X140988142Y-86125957D01*
X140966371Y-86029195D01*
X140966371Y-85956623D01*
X140988142Y-85859861D01*
X141009914Y-85811480D01*
X141053457Y-85763100D01*
X141118771Y-85738909D01*
X141162314Y-85738909D01*
X141227628Y-85763100D01*
X141249400Y-85787290D01*
X141401800Y-85738909D02*
X141684828Y-85738909D01*
X141532428Y-85932433D01*
X141597742Y-85932433D01*
X141641285Y-85956623D01*
X141663057Y-85980814D01*
X141684828Y-86029195D01*
X141684828Y-86150147D01*
X141663057Y-86198528D01*
X141641285Y-86222719D01*
X141597742Y-86246909D01*
X141467114Y-86246909D01*
X141423571Y-86222719D01*
X141401800Y-86198528D01*
D12*
X139858568Y-97675700D02*
X139691654Y-97777300D01*
X139858568Y-97849871D02*
X139508048Y-97849871D01*
X139508048Y-97733757D01*
X139524740Y-97704728D01*
X139541431Y-97690214D01*
X139574814Y-97675700D01*
X139624888Y-97675700D01*
X139658271Y-97690214D01*
X139674962Y-97704728D01*
X139691654Y-97733757D01*
X139691654Y-97849871D01*
X139858568Y-97385414D02*
X139858568Y-97559585D01*
X139858568Y-97472500D02*
X139508048Y-97472500D01*
X139558122Y-97501528D01*
X139591505Y-97530557D01*
X139608197Y-97559585D01*
X141128568Y-97650300D02*
X140961654Y-97751900D01*
X141128568Y-97824471D02*
X140778048Y-97824471D01*
X140778048Y-97708357D01*
X140794740Y-97679328D01*
X140811431Y-97664814D01*
X140844814Y-97650300D01*
X140894888Y-97650300D01*
X140928271Y-97664814D01*
X140944962Y-97679328D01*
X140961654Y-97708357D01*
X140961654Y-97824471D01*
X140811431Y-97534185D02*
X140794740Y-97519671D01*
X140778048Y-97490642D01*
X140778048Y-97418071D01*
X140794740Y-97389042D01*
X140811431Y-97374528D01*
X140844814Y-97360014D01*
X140878197Y-97360014D01*
X140928271Y-97374528D01*
X141128568Y-97548700D01*
X141128568Y-97360014D01*
D26*
X137094806Y-97563758D02*
X136928013Y-97563758D01*
X136928013Y-97825862D02*
X136928013Y-97325482D01*
X137166289Y-97325482D01*
X137619014Y-97825862D02*
X137333082Y-97825862D01*
X137476048Y-97825862D02*
X137476048Y-97325482D01*
X137428393Y-97396965D01*
X137380738Y-97444620D01*
X137333082Y-97468448D01*
X137196406Y-85308258D02*
X137029613Y-85308258D01*
X137029613Y-85570362D02*
X137029613Y-85069982D01*
X137267889Y-85069982D01*
X137434682Y-85117637D02*
X137458510Y-85093810D01*
X137506165Y-85069982D01*
X137625303Y-85069982D01*
X137672959Y-85093810D01*
X137696786Y-85117637D01*
X137720614Y-85165292D01*
X137720614Y-85212948D01*
X137696786Y-85284430D01*
X137410855Y-85570362D01*
X137720614Y-85570362D01*
D20*
X137054771Y-85371214D02*
X137054771Y-84609214D01*
X137345057Y-84609214D01*
X137417628Y-84645500D01*
X137453914Y-84681785D01*
X137490200Y-84754357D01*
X137490200Y-84863214D01*
X137453914Y-84935785D01*
X137417628Y-84972071D01*
X137345057Y-85008357D01*
X137054771Y-85008357D01*
X137780485Y-84681785D02*
X137816771Y-84645500D01*
X137889342Y-84609214D01*
X138070771Y-84609214D01*
X138143342Y-84645500D01*
X138179628Y-84681785D01*
X138215914Y-84754357D01*
X138215914Y-84826928D01*
X138179628Y-84935785D01*
X137744200Y-85371214D01*
X138215914Y-85371214D01*
X163623171Y-104941914D02*
X163623171Y-104179914D01*
X163913457Y-104179914D01*
X163986028Y-104216200D01*
X164022314Y-104252485D01*
X164058600Y-104325057D01*
X164058600Y-104433914D01*
X164022314Y-104506485D01*
X163986028Y-104542771D01*
X163913457Y-104579057D01*
X163623171Y-104579057D01*
X164784314Y-104941914D02*
X164348885Y-104941914D01*
X164566600Y-104941914D02*
X164566600Y-104179914D01*
X164494028Y-104288771D01*
X164421457Y-104361342D01*
X164348885Y-104397628D01*
D27*
X152248083Y-98120320D02*
X153276179Y-98120320D01*
X153397131Y-98180797D01*
X153457607Y-98241273D01*
X153518083Y-98362225D01*
X153518083Y-98604130D01*
X153457607Y-98725082D01*
X153397131Y-98785559D01*
X153276179Y-98846035D01*
X152248083Y-98846035D01*
X152792369Y-99632225D02*
X152731893Y-99511273D01*
X152671417Y-99450797D01*
X152550464Y-99390320D01*
X152489988Y-99390320D01*
X152369036Y-99450797D01*
X152308560Y-99511273D01*
X152248083Y-99632225D01*
X152248083Y-99874130D01*
X152308560Y-99995082D01*
X152369036Y-100055559D01*
X152489988Y-100116035D01*
X152550464Y-100116035D01*
X152671417Y-100055559D01*
X152731893Y-99995082D01*
X152792369Y-99874130D01*
X152792369Y-99632225D01*
X152852845Y-99511273D01*
X152913321Y-99450797D01*
X153034274Y-99390320D01*
X153276179Y-99390320D01*
X153397131Y-99450797D01*
X153457607Y-99511273D01*
X153518083Y-99632225D01*
X153518083Y-99874130D01*
X153457607Y-99995082D01*
X153397131Y-100055559D01*
X153276179Y-100116035D01*
X153034274Y-100116035D01*
X152913321Y-100055559D01*
X152852845Y-99995082D01*
X152792369Y-99874130D01*
D10*
X131200980Y-92476495D02*
X132010504Y-92476495D01*
X132105742Y-92428876D01*
X132153361Y-92381257D01*
X132200980Y-92286019D01*
X132200980Y-92095542D01*
X132153361Y-92000304D01*
X132105742Y-91952685D01*
X132010504Y-91905066D01*
X131200980Y-91905066D01*
X132200980Y-90905066D02*
X132200980Y-91476495D01*
X132200980Y-91190780D02*
X131200980Y-91190780D01*
X131343838Y-91286019D01*
X131439076Y-91381257D01*
X131486695Y-91476495D01*
X131200980Y-90286019D02*
X131200980Y-90190780D01*
X131248600Y-90095542D01*
X131296219Y-90047923D01*
X131391457Y-90000304D01*
X131581933Y-89952685D01*
X131820028Y-89952685D01*
X132010504Y-90000304D01*
X132105742Y-90047923D01*
X132153361Y-90095542D01*
X132200980Y-90190780D01*
X132200980Y-90286019D01*
X132153361Y-90381257D01*
X132105742Y-90428876D01*
X132010504Y-90476495D01*
X131820028Y-90524114D01*
X131581933Y-90524114D01*
X131391457Y-90476495D01*
X131296219Y-90428876D01*
X131248600Y-90381257D01*
X131200980Y-90286019D01*
D12*
X153657300Y-84981868D02*
X153555700Y-84814954D01*
X153483128Y-84981868D02*
X153483128Y-84631348D01*
X153599242Y-84631348D01*
X153628271Y-84648040D01*
X153642785Y-84664731D01*
X153657300Y-84698114D01*
X153657300Y-84748188D01*
X153642785Y-84781571D01*
X153628271Y-84798262D01*
X153599242Y-84814954D01*
X153483128Y-84814954D01*
X153758900Y-84631348D02*
X153947585Y-84631348D01*
X153845985Y-84764880D01*
X153889528Y-84764880D01*
X153918557Y-84781571D01*
X153933071Y-84798262D01*
X153947585Y-84831645D01*
X153947585Y-84915102D01*
X153933071Y-84948485D01*
X153918557Y-84965177D01*
X153889528Y-84981868D01*
X153802442Y-84981868D01*
X153773414Y-84965177D01*
X153758900Y-84948485D01*
M02*
