M48
;DRILL file {KiCad 4.1.0-alpha+201605292346+6852~44~ubuntu14.04.1-product} date Thu Jun  2 19:47:22 2016
;FORMAT={-:-/ absolute / metric / decimal}
FMAT,2
METRIC,TZ
T1C0.254
T2C1.016
T3C2.300
%
G90
G05
M71
T1
X132.817Y-94.818
X134.95Y-91.173
X135.319Y-93.142
X135.636Y-100.33
X136.347Y-100.317
X136.715Y-94.844
X137.096Y-95.999
X137.287Y-90.83
X137.35Y-97.892
X137.363Y-85.649
X137.554Y-90.043
X137.744Y-99.365
X138.405Y-87.033
X139.23Y-96.456
X139.281Y-95.72
X139.421Y-84.963
X139.421Y-85.573
X139.586Y-90.018
X139.725Y-90.818
X139.891Y-86.195
X139.941Y-86.919
X139.954Y-89.471
X140.087Y-93.796
X140.767Y-98.882
X141.008Y-104.496
X141.046Y-93.777
X141.173Y-101.168
X141.211Y-95.212
X141.275Y-99.746
X141.313Y-85.992
X141.338Y-90.5
X141.402Y-99.047
X141.58Y-92.113
X141.58Y-92.964
X141.592Y-91.351
X141.821Y-87.859
X141.897Y-98.654
X141.961Y-88.43
X141.986Y-102.387
X142.037Y-83.083
X142.202Y-96.596
X142.303Y-86.538
X142.494Y-92.113
X142.494Y-92.977
X142.507Y-91.338
X142.57Y-85.115
X142.697Y-93.993
X142.824Y-102.324
X142.913Y-100.292
X142.977Y-85.623
X143.078Y-104.419
X143.459Y-102.349
X143.497Y-87.376
X143.497Y-88.595
X143.561Y-85.141
X143.688Y-100.305
X143.853Y-104.419
X144.12Y-102.362
X144.374Y-91.554
X144.45Y-85.115
X144.45Y-93.104
X144.475Y-92.456
X144.615Y-96.939
X144.818Y-91.961
X144.831Y-90.208
X144.945Y-93.624
X144.996Y-94.666
X145.021Y-91.084
X145.161Y-85.141
X145.313Y-102.337
X145.44Y-89.027
X145.644Y-86.83
X145.91Y-102.311
X145.936Y-99.047
X145.974Y-95.072
X146.037Y-85.128
X146.063Y-89.027
X146.126Y-87.262
X146.228Y-98.133
X146.837Y-89.306
X146.926Y-86.614
X147.015Y-96.723
X147.053Y-98.044
X147.066Y-102.375
X147.333Y-100.52
X147.409Y-89.446
X147.434Y-95.377
X148.069Y-91.275
X148.107Y-85.573
X148.26Y-98.019
X148.526Y-90.767
X148.565Y-85.052
X148.565Y-101.778
X148.806Y-96.914
X148.819Y-99.53
X148.996Y-85.573
X149.022Y-98.019
X149.111Y-88.684
X149.136Y-94.818
X149.314Y-89.281
X149.492Y-86.5
X149.962Y-85.7
X150.114Y-91.605
X150.127Y-92.443
X150.139Y-88.417
X150.165Y-94.043
X150.266Y-100.914
X150.724Y-85.776
X150.901Y-98.044
X150.927Y-94.018
X150.927Y-95.644
X150.927Y-101.511
X150.978Y-91.592
X151.155Y-100.584
X151.46Y-85.712
X151.6Y-101.486
X151.689Y-88.443
X151.689Y-97.244
X151.714Y-90.856
X151.727Y-89.268
X151.727Y-94.818
X151.752Y-92.405
X152.095Y-101.829
X152.209Y-86.601
X152.286Y-100.889
X152.324Y-85.103
X152.451Y-103.772
X152.514Y-87.643
X152.514Y-89.23
X152.514Y-98.019
X152.515Y-98.831
X152.59Y-96.329
X152.616Y-94.831
X152.641Y-93.37
X152.641Y-97.041
X152.641Y-101.422
X152.73Y-90.233
X152.806Y-86.093
X153.225Y-102.083
X153.327Y-98.019
X153.365Y-97.168
X153.581Y-90.627
X153.899Y-102.044
X154.127Y-90.106
X154.127Y-97.168
X154.33Y-100.622
X154.407Y-103.556
X154.546Y-101.968
X154.788Y-101.232
X154.889Y-99.619
X154.896Y-94.761
X154.915Y-93.193
X154.927Y-97.053
X154.94Y-94.018
X154.94Y-98.082
X154.94Y-98.831
X155.042Y-103.518
X155.346Y-84.671
X155.524Y-102.616
X155.727Y-92.481
X155.727Y-94.831
X155.956Y-101.778
X156.248Y-90.17
X156.375Y-85.623
X156.566Y-93.243
X156.591Y-101.371
X156.731Y-97.13
X156.832Y-100.762
X156.883Y-95.987
X157.074Y-85.065
X157.162Y-102.578
X157.264Y-91.262
X157.302Y-87.643
X157.328Y-97.993
X157.34Y-94.831
X157.505Y-93.497
X157.988Y-104.508
X158.039Y-102.349
X158.115Y-97.257
X158.128Y-88.481
X158.14Y-98.057
X158.28Y-84.798
X158.293Y-86.03
X158.572Y-96.761
X158.826Y-100.711
X158.877Y-98.044
X159.004Y-97.18
X159.017Y-91.757
X159.144Y-96.126
X159.156Y-103.734
X159.245Y-94.717
X159.55Y-94.158
X159.563Y-93.472
X159.588Y-91.326
X159.639Y-90.729
X159.677Y-96.533
X159.677Y-98.806
X159.702Y-100.901
X159.715Y-90.018
X159.753Y-104.546
X160.503Y-94.831
X160.503Y-97.257
X160.515Y-86.69
X160.528Y-96.431
X160.591Y-103.543
X161.061Y-85.242
X161.265Y-93.294
X161.29Y-94.043
X161.303Y-92.456
X161.315Y-98.806
X161.328Y-94.818
X161.341Y-88.417
X161.341Y-97.218
X162.103Y-90.043
X162.23Y-100.99
X162.992Y-89.992
X163.055Y-93.65
X163.271Y-97.955
X163.347Y-92.596
X163.474Y-98.857
X163.551Y-89.256
X163.551Y-94.412
X163.932Y-99.314
X163.995Y-82.918
X164.122Y-94.005
X164.236Y-93.167
X164.376Y-92.126
X164.617Y-96.863
X164.643Y-87.224
X164.757Y-90.272
X164.909Y-91.376
X165.011Y-99.301
X165.036Y-88.443
X165.049Y-92.951
X165.341Y-85.344
X165.379Y-90.157
X165.57Y-100.165
X165.595Y-94.399
X165.608Y-97.587
X165.798Y-90.614
X165.964Y-96.38
X166.205Y-85.954
X166.256Y-95.161
X166.281Y-89.395
X166.433Y-91.491
X166.446Y-87.757
X166.459Y-101.092
X166.497Y-99.428
X166.535Y-97.587
X166.548Y-98.514
X166.688Y-96.342
X166.802Y-85.966
X166.891Y-89.294
X167.17Y-100.749
X167.488Y-96.203
X167.513Y-95.275
X167.576Y-99.301
X167.64Y-91.148
X167.653Y-89.814
X167.678Y-88.087
X167.729Y-94.399
X167.983Y-98.146
X168.262Y-101.511
X168.453Y-95.326
X168.567Y-97.168
X168.631Y-90.145
X168.631Y-90.907
X168.643Y-96.495
X168.656Y-92.57
X168.656Y-98.133
X168.745Y-99.695
X169.062Y-82.499
X169.1Y-85.395
X169.418Y-97.32
X169.431Y-102.133
X169.443Y-99.733
X169.456Y-96.545
X169.469Y-87.719
X170.002Y-99.962
X170.078Y-102.133
X170.282Y-93.243
X170.294Y-89.37
X170.345Y-92.634
X170.396Y-87.871
X170.396Y-97.599
X170.434Y-91.491
X170.472Y-94.704
X170.472Y-95.288
X170.637Y-83.655
X170.675Y-82.512
X170.688Y-96.444
X170.764Y-95.809
X170.866Y-89.637
X170.866Y-93.218
X170.993Y-87.947
X171.018Y-86.982
X171.336Y-100.406
X171.45Y-85.141
X171.653Y-98.247
X171.729Y-99.67
X171.767Y-97.549
X171.983Y-101.168
X172.06Y-101.816
X172.072Y-92.405
X172.25Y-89.281
X172.263Y-92.964
X172.441Y-95.822
X172.491Y-91.618
X172.517Y-93.548
X172.542Y-89.941
X172.568Y-90.868
X172.593Y-94.894
X172.631Y-97.307
X172.644Y-84.988
X172.758Y-99.873
X173.431Y-93.358
X173.431Y-95.72
X173.431Y-97.333
X173.457Y-87.617
X173.457Y-89.332
X173.457Y-90.132
X173.457Y-94.12
X173.749Y-101.206
X174.219Y-87.668
X174.219Y-94.92
X174.244Y-93.32
X174.257Y-90.094
X174.257Y-98.92
X174.257Y-102.578
X174.574Y-84.112
X174.587Y-97.765
X174.65Y-96.164
X175.057Y-90.132
X175.146Y-92.481
X175.235Y-95.809
X175.247Y-98.742
X175.311Y-93.929
X175.451Y-91.275
X175.476Y-89.484
X175.692Y-96.304
X176.695Y-87.224
T2
X136.347Y-83.121
X138.887Y-83.121
X162.89Y-103.835
X165.43Y-103.835
T3
X131.139Y-84.768
X131.139Y-97.908
T0
M30
